<?xml version="1.0" encoding="UTF-8"?>
<svg version="1.1" xmlns="http://www.w3.org/2000/svg" width="1024" height="1024">
<path d="M0 0 C4.22681769 5.46999936 5.56828066 9.9476446 5.51026917 16.79373169 C5.51550486 17.58668416 5.52074056 18.37963663 5.52613491 19.19661796 C5.54006665 21.84493938 5.53280243 24.49277132 5.52563477 27.14111328 C5.53137903 29.0436903 5.53846252 30.94626368 5.54678345 32.84883118 C5.56188953 36.94285585 5.56767137 41.03675017 5.56625557 45.13080215 C5.56421985 51.61200435 5.58380454 58.09303183 5.60643005 64.57418823 C5.6474088 77.1713512 5.6660021 89.76850044 5.68260193 102.36571503 C5.70495151 118.37835674 5.73863344 134.39095789 5.78980106 150.40353382 C5.80965556 156.8379732 5.8192983 163.27232139 5.82075322 169.70679021 C5.82351687 173.72261259 5.83437662 177.73838523 5.84726334 181.75418663 C5.85151865 183.60681252 5.85241962 185.45944986 5.84958839 187.31207848 C5.81633683 211.90515879 12.13578381 226.26978092 28.125 244.75 C28.599375 245.30026855 29.07375 245.85053711 29.5625 246.41748047 C33.57801326 251.04144905 37.66007156 255.38856137 42.28198242 259.40795898 C43.00181808 260.03484116 43.72165375 260.66172333 44.46330261 261.30760193 C45.01166275 261.78359329 45.56002289 262.25958466 46.125 262.75 C46.12831015 262.19875993 46.13162029 261.64751986 46.13503075 261.07957554 C46.21670226 247.58768123 46.30905167 234.09589509 46.41252708 220.60414982 C46.46225522 214.07930141 46.50858547 207.55446737 46.546875 201.02954102 C46.58402674 194.72059256 46.63046362 188.41177178 46.68306351 182.10293388 C46.70144998 179.70829977 46.71661452 177.31363845 46.72834396 174.91896248 C46.87234031 146.51049362 48.05529921 117.83573698 69.24609375 96.4765625 C82.31625769 84.09803545 98.71650385 78.04004974 116.77734375 78.5078125 C150.38990671 80.93952651 175.62221019 95.29161419 200.46044922 117.29882812 C201.65561506 118.34078556 202.86775341 119.36339437 204.09033203 120.37304688 C204.73212402 120.90478516 205.37391602 121.43652344 206.03515625 121.984375 C206.62562744 122.46616211 207.21609863 122.94794922 207.82446289 123.44433594 C209.125 124.75 209.125 124.75 209.125 126.75 C209.785 126.75 210.445 126.75 211.125 126.75 C212.53515625 128.1484375 212.53515625 128.1484375 214.1875 130.125 C216.92293087 133.3484953 219.70922204 136.50515282 222.5625 139.625 C241.31543897 160.48961445 256.57032341 184.27768952 270.125 208.75 C270.55280762 209.51231934 270.98061523 210.27463867 271.42138672 211.06005859 C312.62572818 284.75715326 329.13781548 372.15906955 332.375 476.0625 C332.37600708 476.97232635 332.37701416 477.88215271 332.37805176 478.81954956 C332.34251702 527.12223777 331.8144729 592.18928122 296.5390625 629.46484375 C285.03292718 640.35657379 272.26033769 646.01030857 256.30078125 645.66796875 C235.98930485 644.18457447 220.28138064 632.18815872 204.75292969 620.0234375 C200.47927562 616.68039917 196.17120852 613.38202216 191.86132812 610.0859375 C190.05037954 608.69258673 188.25196671 607.28393571 186.453125 605.875 C162.83510299 587.55481508 134.87554491 572.76851289 107.125 561.75 C105.125 560.75 105.125 560.75 103.3984375 559.41015625 C100.64062861 557.39629237 97.74475552 555.82879049 94.75 554.1875 C89.41301327 551.1962538 84.31041175 547.96669867 79.3125 544.4375 C78.70809082 544.01718506 78.10368164 543.59687012 77.48095703 543.16381836 C73.24755051 540.11765153 73.24755051 540.11765153 72.125 536.75 C71.23941406 536.32847656 71.23941406 536.32847656 70.3359375 535.8984375 C62.31571269 531.732455 56.35286965 518.69286495 53.125 510.75 C52.9496875 509.83089844 52.774375 508.91179688 52.59375 507.96484375 C52.4390625 507.23394531 52.284375 506.50304687 52.125 505.75 C51.465 505.42 50.805 505.09 50.125 504.75 C49.70029159 502.06975374 49.38518218 499.4463536 49.125 496.75 C48.95186155 495.42289461 48.77574935 494.0961739 48.59671021 492.76985168 C46.44064565 474.88120906 46.8662512 456.87340582 46.92221212 438.88892341 C46.93486582 434.12442593 46.93590135 429.35992489 46.93826294 424.59541321 C46.94443529 415.60751627 46.96078753 406.61966903 46.98096192 397.6317938 C47.00345449 387.38483405 47.01434766 377.1378717 47.02435279 366.89089334 C47.04515842 345.84390135 47.08025018 324.79695383 47.125 303.75 C46.33585205 303.44602295 45.5467041 303.1420459 44.73364258 302.82885742 C42.24988072 301.80164697 40.78171463 300.84603186 38.8125 299.0625 C38.20792969 298.52238281 37.60335938 297.98226563 36.98046875 297.42578125 C36.36816406 296.87277344 35.75585938 296.31976563 35.125 295.75 C33.95852264 294.74977918 32.79184532 293.74979154 31.625 292.75 C24.97314001 286.92470249 18.52786391 280.84721684 12.125 274.75 C11.28062378 273.97317871 11.28062378 273.97317871 10.41918945 273.18066406 C9.125 271.75 9.125 271.75 9.125 269.75 C8.465 269.75 7.805 269.75 7.125 269.75 C1.43211724 264.39674945 -3.1186819 257.62090234 -7.8359375 251.41015625 C-9.62338423 248.95793908 -9.62338423 248.95793908 -10.875 247.75 C-11.266875 248.34683594 -11.65875 248.94367188 -12.0625 249.55859375 C-18.69950366 259.18510983 -26.73206485 267.39898303 -34.875 275.75 C-35.67035156 276.56726563 -36.46570313 277.38453125 -37.28515625 278.2265625 C-53.95542334 295.2931117 -53.95542334 295.2931117 -62.84375 302.15625 C-63.5140625 302.6821875 -64.184375 303.208125 -64.875 303.75 C-65.40394835 304.1393123 -65.93289671 304.52862459 -66.4778738 304.92973423 C-68.60162821 307.69669792 -68.25463452 310.01584814 -68.26026917 313.46800232 C-68.26550486 314.15474173 -68.27074056 314.84148114 -68.27613491 315.54903084 C-68.29013213 317.85635098 -68.28278566 320.16311459 -68.27563477 322.47045898 C-68.28137616 324.12316384 -68.28845846 325.77586449 -68.29678345 327.42855835 C-68.31192256 330.9938743 -68.31766845 334.55904027 -68.31625557 338.12438774 C-68.3142207 343.78003606 -68.33380384 349.43548388 -68.35643005 355.09107971 C-68.39746853 366.10241767 -68.41599613 377.11374015 -68.43260193 388.12513733 C-68.45491979 402.07866735 -68.48890175 416.03215051 -68.53980106 429.98560578 C-68.55632802 434.67661574 -68.56840911 439.36755127 -68.57003975 444.05859184 C-68.59465176 512.29024947 -68.59465176 512.29024947 -90.95703125 534.921875 C-110.33727521 553.88513258 -135.29574058 565.72670972 -159.44140625 577.46875 C-178.03798849 586.52392551 -194.50159705 597.97408468 -210.84765625 610.578125 C-256.10874248 645.45094123 -256.10874248 645.45094123 -279.75 645.1875 C-280.71526611 645.17920166 -281.68053223 645.17090332 -282.67504883 645.16235352 C-295.05808948 644.86933167 -303.85854072 640.890608 -313.875 633.75 C-314.926875 633.0075 -315.97875 632.265 -317.0625 631.5 C-323.20576902 625.49324807 -327.73698338 618.23026082 -331.875 610.75 C-332.535 610.09 -333.195 609.43 -333.875 608.75 C-334.57926607 606.7428417 -335.26805604 604.72957691 -335.90234375 602.69921875 C-336.60261011 600.57592114 -337.37485825 598.4758806 -338.19140625 596.39453125 C-341.84170442 587.01708305 -344.19773513 577.53689358 -346.25 567.6875 C-346.51272705 566.4387207 -346.7754541 565.18994141 -347.04614258 563.90332031 C-348.28129531 557.74538532 -349.20437118 552.03157889 -348.875 545.75 C-349.535 545.42 -350.195 545.09 -350.875 544.75 C-350.93558594 543.7084375 -350.99617187 542.666875 -351.05859375 541.59375 C-351.14321231 540.14583235 -351.22784873 538.69791574 -351.3125 537.25 C-351.35181641 536.57324219 -351.39113281 535.89648438 -351.43164062 535.19921875 C-351.47353516 534.48378906 -351.51542969 533.76835938 -351.55859375 533.03125 C-351.60508057 532.20979492 -351.65156738 531.38833984 -351.69946289 530.54199219 C-351.8223017 528.58818889 -351.96650044 526.63566486 -352.12670898 524.68457031 C-353.13742341 511.38636541 -353.06234998 498.06606687 -353.06030273 484.73730469 C-353.06022209 481.93385276 -353.06707798 479.13056641 -353.08081055 476.32714844 C-353.32877318 424.87872007 -347.23697108 373.63094737 -334.80810547 323.69213867 C-334.6203656 322.93754868 -334.43262573 322.18295868 -334.23919678 321.40550232 C-333.89100333 320.01555166 -333.5388724 318.62657778 -333.18170166 317.23890686 C-332.12921042 313.08184861 -331.41586189 308.99621032 -330.875 304.75 C-330.215 304.75 -329.555 304.75 -328.875 304.75 C-328.78645752 304.19924805 -328.69791504 303.64849609 -328.60668945 303.08105469 C-327.18588361 295.13742177 -324.69617658 287.60604153 -322.0625 280 C-321.8243457 279.30835754 -321.58619141 278.61671509 -321.34082031 277.90411377 C-311.2035524 248.61300041 -298.19893517 220.11735134 -281.875 193.75 C-281.50697266 193.15316406 -281.13894531 192.55632812 -280.75976562 191.94140625 C-272.04988818 177.8992699 -262.56184884 164.35787053 -251.875 151.75 C-251.10542969 150.79609375 -250.33585937 149.8421875 -249.54296875 148.859375 C-243.81192289 141.80629895 -237.60980595 135.30350628 -231.1875 128.875 C-230.39166504 128.07835937 -229.59583008 127.28171875 -228.77587891 126.4609375 C-204.46317095 102.37554554 -174.87274627 81.45368855 -139.875 78.75 C-138.53695312 78.64171875 -138.53695312 78.64171875 -137.171875 78.53125 C-120.89093297 77.88432515 -105.35393654 84.1385967 -92.90234375 94.37109375 C-75.50176228 110.8996643 -69.45245433 133.00719818 -68.80278015 156.3442173 C-68.65781622 163.92274538 -68.61245071 171.50242246 -68.55859375 179.08203125 C-68.5379896 181.52968163 -68.5169923 183.97732873 -68.49562073 186.42497253 C-68.44075716 192.82810793 -68.39119224 199.23127351 -68.34277344 205.63446045 C-68.29229555 212.18406826 -68.23674751 218.73363292 -68.18164062 225.28320312 C-68.07449673 238.10543155 -67.97278437 250.92769696 -67.875 263.75 C-65.96772435 261.87335876 -64.06480066 259.99261915 -62.1640625 258.109375 C-61.63047119 257.58520996 -61.09687988 257.06104492 -60.54711914 256.52099609 C-56.43582723 252.43801453 -52.8632629 248.16463123 -49.3984375 243.515625 C-48.89570313 242.93296875 -48.39296875 242.3503125 -47.875 241.75 C-47.215 241.75 -46.555 241.75 -45.875 241.75 C-45.64425781 241.22664062 -45.41351563 240.70328125 -45.17578125 240.1640625 C-43.43413848 236.93182456 -41.24068325 234.0695146 -39.0625 231.125 C-30.13859547 218.81235212 -27.7069781 209.67605357 -27.78613281 194.58447266 C-27.7882653 193.36968609 -27.7903978 192.15489952 -27.79259491 190.90330124 C-27.79763193 188.25888268 -27.80441608 185.6145342 -27.81404877 182.97013474 C-27.82924611 178.71126476 -27.83658448 174.45240429 -27.84210205 170.19351196 C-27.84304926 169.46636077 -27.84399646 168.73920957 -27.84497237 167.99002349 C-27.84687397 166.50092129 -27.84873993 165.01181905 -27.85057116 163.52271676 C-27.85354429 161.23675157 -27.85708177 158.95078777 -27.86071396 156.66482353 C-27.89688829 132.647916 -27.81990388 108.63124796 -27.6911087 84.6146965 C-27.65067526 77.00728377 -27.61846848 69.39999093 -27.60400391 61.79248047 C-27.59100521 54.96157483 -27.5642074 48.13089158 -27.52038693 41.30011141 C-27.49797015 37.7382925 -27.48207843 34.1767449 -27.48311615 30.61484909 C-27.48399721 26.7096295 -27.45386503 22.80499044 -27.42089844 18.89990234 C-27.4259288 17.75032043 -27.43095917 16.60073853 -27.43614197 15.4163208 C-27.35492067 9.22768723 -27.08505321 5.42168027 -22.875 0.75 C-15.53658297 -5.0270517 -7.60064254 -5.94832894 0 0 Z M-187.875 131.75 C-188.83535156 132.52730469 -189.79570312 133.30460937 -190.78515625 134.10546875 C-203.42374671 144.43300267 -214.81090186 155.90427013 -224.875 168.75 C-226.35237749 170.52232629 -227.831585 172.29312851 -229.3125 174.0625 C-237.3118604 183.88240449 -244.30531662 194.27607064 -251.125 204.9375 C-251.99257935 206.29065308 -251.99257935 206.29065308 -252.87768555 207.67114258 C-259.60529972 218.29140357 -265.32668871 229.39810996 -270.85595703 240.67480469 C-271.5119505 242.01068023 -272.17150385 243.34481658 -272.83544922 244.67675781 C-313.42065337 326.26795621 -326.95443481 425.44271096 -309.71191406 583.37158203 C-305.73595513 594.67082122 -299.83063697 605.96501412 -288.875 611.75 C-280.96693373 614.48740756 -271.70278287 613.45209125 -264.24609375 609.9921875 C-263.46363281 609.58226562 -262.68117188 609.17234375 -261.875 608.75 C-261.12347656 608.36070312 -260.37195313 607.97140625 -259.59765625 607.5703125 C-251.14034176 602.8139526 -243.5692243 596.62462022 -235.875 590.75 C-226.72117328 583.78522479 -217.55860703 576.97105386 -207.875 570.75 C-207.22289551 570.32283691 -206.57079102 569.89567383 -205.89892578 569.45556641 C-191.4889713 560.01840751 -176.48803677 551.88519665 -161.26708984 543.84375 C-158.15738928 542.20082895 -155.05066614 540.55236799 -151.94503784 538.90176392 C-150.18828967 537.97103114 -148.42734632 537.04823001 -146.66625977 536.12573242 C-134.98120496 529.92897002 -124.33484842 523.04561494 -114.875 513.75 C-114.215 513.10289062 -113.555 512.45578125 -112.875 511.7890625 C-97.20041739 495.23616276 -100.57692046 469.8991375 -100.61355066 448.77392745 C-100.61812247 444.86523879 -100.61106829 440.95656721 -100.60559082 437.04788208 C-100.59674558 429.41370454 -100.59859682 421.77956654 -100.6044161 414.14538752 C-100.60895123 407.93644124 -100.60953754 401.72750597 -100.60736847 395.5185585 C-100.60690877 394.18801028 -100.60690877 394.18801028 -100.60643978 392.8305823 C-100.60580027 391.02806034 -100.60515184 389.22553839 -100.6044946 387.42301644 C-100.59880575 370.56240309 -100.60532679 353.70181157 -100.61609533 336.8412018 C-100.62503263 322.40112232 -100.62347452 307.961075 -100.61425781 293.52099609 C-100.60353493 276.71350645 -100.59935169 259.90603587 -100.60548234 243.09854329 C-100.60611938 241.30363218 -100.60674812 239.50872108 -100.60736847 237.71380997 C-100.60767702 236.83089193 -100.60798557 235.9479739 -100.60830347 235.03830077 C-100.61002413 228.84200534 -100.607129 222.6457221 -100.60240936 216.44942856 C-100.59677819 208.89097815 -100.59836389 201.33256924 -100.60897085 193.77412353 C-100.61419713 189.92411732 -100.61633673 186.07418008 -100.60967255 182.2241745 C-100.6025353 178.03731989 -100.61110444 173.85063678 -100.62103271 169.66378784 C-100.61657127 168.46619115 -100.61210983 167.26859445 -100.60751319 166.03470695 C-100.67074948 152.20000081 -101.15239487 136.11581881 -109.875 124.75 C-110.431875 123.945625 -110.98875 123.14125 -111.5625 122.3125 C-118.84419195 114.24359811 -126.11437086 110.5754378 -136.890625 109.7890625 C-155.70985724 109.54273747 -173.85052544 119.94862933 -187.875 131.75 Z M91.41015625 119.27734375 C77.16679767 134.10058462 79.84448385 158.44090591 79.9296875 177.27734375 C79.93342479 179.72213118 79.93626837 182.16692012 79.93826294 184.61170959 C79.94584306 190.99844612 79.96544236 197.38508945 79.9876709 203.77178955 C80.00825139 210.30813334 80.01729058 216.84449242 80.02734375 223.38085938 C80.04869429 236.17061232 80.08236828 248.96030117 80.125 261.75 C81.7294717 261.91501418 83.33407619 262.07873763 84.93873596 262.24191284 C85.8322857 262.33322416 86.72583544 262.42453548 87.64646244 262.51861382 C90.28095673 262.76455949 92.88153685 262.87907887 95.52734375 262.8828125 C96.43274902 262.88474609 97.3381543 262.88667969 98.27099609 262.88867188 C99.19219238 262.88416016 100.11338867 262.87964844 101.0625 262.875 C102.02236816 262.87306641 102.98223633 262.87113281 103.97119141 262.86914062 C110.39401419 262.82989065 116.75134024 262.60388743 123.125 261.75 C123.49625 260.6775 123.8675 259.605 124.25 258.5 C128.91666407 246.20094143 134.44739656 235.56933286 146.26171875 229.0078125 C157.67560394 223.99380018 170.27485047 223.33936146 181.9765625 227.75390625 C192.25445138 232.51910928 200.15110177 240.16403531 204.43359375 250.70703125 C207.63195175 260.15754669 207.78456577 272.47342221 203.38671875 281.546875 C202.97035156 282.27390625 202.55398438 283.0009375 202.125 283.75 C201.67769531 284.53890625 201.23039063 285.3278125 200.76953125 286.140625 C194.40371286 296.44881349 184.9014842 302.95789363 173.125 305.75 C158.80545434 306.87396026 147.62017021 304.74781694 136.125 295.75 C135.641521 294.89631836 135.15804199 294.04263672 134.65991211 293.16308594 C130.64376957 289.33995651 126.45990351 290.11038642 121.12109375 290.2265625 C119.50884666 290.2336171 119.50884666 290.2336171 117.86402893 290.24081421 C114.42953523 290.26216903 110.99658156 290.31879415 107.5625 290.375 C105.24545723 290.39150523 102.92839801 290.40585378 100.61132812 290.41796875 C96.37406722 290.45194055 92.13697256 290.48681454 87.90014648 290.55712891 C87.0483934 290.56998932 86.19664032 290.58284973 85.31907654 290.59609985 C82.94701186 290.67095613 82.94701186 290.67095613 80.125 291.75 C80.125 313.53 80.125 335.31 80.125 357.75 C85.5421013 358.35190014 90.37327192 358.87537743 95.72705078 358.87939453 C96.94506378 358.88254669 98.16307678 358.88569885 99.41799927 358.88894653 C100.70576263 358.8869223 101.993526 358.88489807 103.3203125 358.8828125 C104.68073545 358.88348774 106.04115827 358.8844596 107.40158081 358.88571167 C110.23729616 358.88717728 113.07297978 358.88507025 115.90869141 358.88037109 C119.52748694 358.87466354 123.14620845 358.87796653 126.7650013 358.88394356 C129.56868032 358.88757068 132.37234201 358.8864009 135.17602158 358.88381577 C137.15397948 358.88283304 139.13193808 358.88584714 141.1098938 358.88894653 C148.26584272 358.90787713 148.26584272 358.90787713 155.37060547 358.17919922 C158.125 357.75 158.125 357.75 160.125 358.75 C162.1003988 358.89779962 164.08178924 358.97118966 166.0625 359 C167.12339844 359.02578125 168.18429687 359.0515625 169.27734375 359.078125 C172.09028489 358.9909318 172.09028489 358.9909318 173.83984375 357.5 C175.26534927 355.55888611 176.51404931 353.5671456 177.75 351.5 C183.62861249 342.57321806 192.21210423 338.05429859 202.125 334.75 C217.33020829 333.80740071 229.1888037 335.44331856 241.125 345.75 C250.00631484 354.90353905 253.23198752 365.12547295 253.125 377.75 C252.4543064 388.16715589 248.2003562 399.00593826 240.38671875 406.15234375 C229.23700354 414.02839473 218.66196344 416.71401645 205.125 415.75 C194.14661253 413.33943813 184.54897804 406.9663102 178.125 397.75 C176.79136628 395.117026 175.57141882 392.48836212 174.4609375 389.75390625 C173.31095293 387.56760887 173.31095293 387.56760887 171.06840515 387.13284302 C167.27120833 386.63894897 163.51610469 386.61072654 159.69458008 386.62060547 C158.85825546 386.61885315 158.02193085 386.61710083 157.16026306 386.61529541 C154.40499782 386.61090568 151.64979711 386.61380395 148.89453125 386.6171875 C146.97832731 386.61651383 145.06212345 386.61554327 143.1459198 386.61428833 C139.13543888 386.61281542 135.12498027 386.61495357 131.11450195 386.61962891 C125.96605825 386.62533751 120.81766655 386.62203747 115.66922474 386.61605644 C111.71538396 386.61244971 107.7615556 386.61358974 103.80771446 386.61618423 C101.9086373 386.61685259 100.00955903 386.61602825 98.11048317 386.61370468 C95.46270364 386.61117508 92.81500947 386.6150226 90.16723633 386.62060547 C88.98355972 386.61756912 88.98355972 386.61756912 87.77597046 386.61447144 C83.82135525 386.54608214 83.82135525 386.54608214 80.125 387.75 C80.125 411.84 80.125 435.93 80.125 460.75 C87.488125 460.811875 94.85125 460.87375 102.4375 460.9375 C104.75950439 460.96481201 107.08150879 460.99212402 109.47387695 461.02026367 C111.31200642 461.02902456 113.1501417 461.03666944 114.98828125 461.04296875 C115.94456421 461.05831665 116.90084717 461.07366455 117.8861084 461.08947754 C118.7993689 461.08984009 119.71262939 461.09020264 120.65356445 461.09057617 C121.84270195 461.10056892 121.84270195 461.10056892 123.05586243 461.11076355 C125.65791457 460.65708392 126.4820912 459.7721967 128.125 457.75 C129.06695723 456.32894384 129.98202617 454.88983666 130.875 453.4375 C137.52367596 443.38300719 147.08112672 438.25558034 158.75 435.6875 C170.0308841 433.56186353 181.45634807 436.60226833 190.953125 443.0078125 C199.33290972 449.72972614 205.79081553 458.78899842 207.59765625 469.5703125 C208.02799328 482.4055822 204.03903715 495.33945559 195.2890625 504.796875 C185.8000279 513.36098565 174.12283376 517.26816669 161.4375 516.6875 C148.86274624 515.26337126 139.66659952 509.32189034 131.59375 499.78125 C129.5293353 496.92620839 128.39510536 494.02553489 127.125 490.75 C124.7949002 489.5849501 123.45252923 489.6290642 120.85888672 489.63647461 C119.97812469 489.63655014 119.09736267 489.63662567 118.18991089 489.63670349 C117.23778717 489.64186478 116.28566345 489.64702606 115.3046875 489.65234375 C113.84399338 489.65446617 113.84399338 489.65446617 112.35379028 489.65663147 C109.23582927 489.66224027 106.1179394 489.67479427 103 489.6875 C100.88932395 489.69251387 98.77864678 489.69707697 96.66796875 489.70117188 C91.48695479 489.71221255 86.30598248 489.72895927 81.125 489.75 C81.59477116 491.35738227 82.0678114 492.96380937 82.54223633 494.56982422 C82.80531082 495.46450409 83.06838531 496.35918396 83.33943176 497.28097534 C88.41832523 513.24383204 103.88472786 523.08589325 117.96484375 530.48828125 C119.72213097 531.38109159 121.47950886 532.27379687 123.24313354 533.15402222 C126.41184483 534.73627839 129.56390008 536.35127318 132.71875 537.9609375 C133.3486937 538.28128464 133.97863739 538.60163177 134.62767029 538.9316864 C143.14395722 543.27086857 151.51950813 547.86646985 159.87548828 552.50537109 C161.82617104 553.58466138 163.78395854 554.64878224 165.74609375 555.70703125 C185.21743171 566.43613584 203.31402832 579.65188494 220.75 593.390625 C238.92989938 608.37283401 238.92989938 608.37283401 261.35546875 613.15625 C268.95624045 612.04132721 274.84518 608.03331368 279.54296875 602.0703125 C311.02028223 555.90358606 302.76719774 473.32544218 298.125 420.75 C298.0641925 420.03853821 298.00338501 419.32707642 297.94073486 418.59405518 C295.38948316 388.79016418 290.83539855 359.23434018 283.0703125 330.3125 C282.54723364 328.34122761 282.04956321 326.36065397 281.66162109 324.35839844 C270.42779687 269.75322193 241.85430718 214.04975706 207.125 170.75 C206.30902344 169.72777344 205.49304688 168.70554687 204.65234375 167.65234375 C193.05510294 153.40696648 179.94377749 140.59979328 165.125 129.75 C164.29097656 129.10933594 163.45695313 128.46867187 162.59765625 127.80859375 C142.71067923 113.01744778 112.37381911 100.60583537 91.41015625 119.27734375 Z M153.125 256.375 C150.62871747 260.58747676 149.70393991 263.86240052 150.125 268.75 C151.336162 272.82970359 153.13880217 275.79368695 156.1875 278.75 C162.13031503 280.77308597 167.95955212 280.79405523 173.625 278.0625 C177.81407439 274.18760619 179.29759515 271.51222687 179.5625 265.8125 C179.38499706 261.03412081 178.50633642 258.30040324 175.125 254.75 C167.16918412 249.71865399 160.44158287 249.97298999 153.125 256.375 Z M202.125 362.75 C198.51628678 366.63630654 197.38431645 370.33606161 197.02734375 375.5078125 C197.24513232 380.50823798 199.08271846 383.78398296 202.6875 387.125 C207.42665608 390.28443739 211.50400125 390.50618817 217.125 389.75 C221.46937513 387.7716871 224.38908807 385.24390286 226.125 380.75 C226.8092501 375.48286554 226.75905953 371.06508642 224.4375 366.25 C221.10698986 362.6494485 218.55391459 361.12744914 213.8125 359.875 C209.27270954 359.7211088 206.03444428 360.42982981 202.125 362.75 Z M154.125 465.75 C151.31356287 469.61252153 149.74966905 473.11223808 150.1875 477.9375 C151.51077278 483.31880929 152.76267272 485.6714909 157.125 489.125 C161.99043486 491.67158931 166.93049309 490.97223692 172.125 489.75 C176.13859485 487.74320258 177.43791327 485.49477836 179 481.4375 C180.20707021 477.1743792 180.48217655 474.06103139 179.125 469.75 C176.61009223 465.99640631 174.47226678 463.19908893 170.125 461.75 C163.75172932 461.08086143 158.98023015 461.12597128 154.125 465.75 Z " fill="#1B9DB8" transform="translate(522.875,190.25)"/>
<path d="M0 0 C3.53741899 2.95686772 7.02190678 5.97185864 10.47265625 9.02929688 C11.66782209 10.07125431 12.87996044 11.09386312 14.10253906 12.10351562 C14.74433105 12.63525391 15.38612305 13.16699219 16.04736328 13.71484375 C16.63783447 14.19663086 17.22830566 14.67841797 17.83666992 15.17480469 C19.13720703 16.48046875 19.13720703 16.48046875 19.13720703 18.48046875 C19.79720703 18.48046875 20.45720703 18.48046875 21.13720703 18.48046875 C22.54736328 19.87890625 22.54736328 19.87890625 24.19970703 21.85546875 C26.9351379 25.07896405 29.72142908 28.23562157 32.57470703 31.35546875 C51.327646 52.2200832 66.58253044 76.00815827 80.13720703 100.48046875 C80.56501465 101.24278809 80.99282227 102.00510742 81.43359375 102.79052734 C103.5278548 142.30779155 132.1472745 203.24891696 130.13720703 249.48046875 C127.93596923 245.75208821 127.21418294 241.75878613 126.35986328 237.5703125 C126.01472493 235.94158964 125.66848432 234.31310008 125.32128906 232.68481445 C125.13939026 231.82699371 124.95749146 230.96917297 124.77008057 230.08535767 C108.05996224 151.93940301 73.64006378 77.56367709 18.13720703 19.48046875 C17.30833984 18.6090625 16.47947266 17.73765625 15.62548828 16.83984375 C-7.12316636 -6.52143175 -37.71815732 -25.93454302 -71.08618164 -26.82006836 C-90.00281221 -26.9317314 -105.90665723 -22.42575543 -120.04248047 -9.53125 C-139.96510688 11.05029596 -140.15454249 39.64939633 -140.27685547 66.44140625 C-140.29559221 69.04457191 -140.31516744 71.64773165 -140.33554077 74.25088501 C-140.3814039 80.36673076 -140.4189057 86.48257367 -140.45221364 92.59849894 C-140.49066354 99.57093493 -140.54001234 106.54328112 -140.5901978 113.51564097 C-140.69304093 127.83718224 -140.78245345 142.15878442 -140.86279297 156.48046875 C-141.19279297 156.48046875 -141.52279297 156.48046875 -141.86279297 156.48046875 C-142.04109728 142.17122294 -142.20651835 127.86187618 -142.35756874 113.55231571 C-142.42809015 106.90629024 -142.50257361 100.26037668 -142.58642578 93.61450195 C-142.66734642 87.18900334 -142.73744979 80.76346587 -142.80036545 74.33776665 C-142.82609089 71.89840862 -142.8555741 69.45908695 -142.88905716 67.01982307 C-143.26342087 39.35383175 -142.32989944 10.91299501 -122.18579102 -10.33740234 C-87.19045003 -45.61081282 -33.54381784 -27.36261104 0 0 Z " fill="#105F6C" transform="translate(712.86279296875,298.51953125)"/>
<path d="M0 0 C0.33 0 0.66 0 1 0 C1.00331015 0.90261566 1.00662029 1.80523132 1.01003075 2.73519897 C1.09145226 24.75550634 1.18360653 46.77574636 1.28752708 68.79595947 C1.33752792 79.44501324 1.38397169 90.09405979 1.421875 100.74316406 C1.45494256 110.03105625 1.49485394 119.31889028 1.54279006 128.60671806 C1.56790912 133.51895744 1.58973245 138.43115897 1.60334396 143.34344482 C1.61629808 147.97930447 1.63849212 152.61503332 1.66738319 157.25082016 C1.67635582 158.94049529 1.68212464 160.63019141 1.68421364 162.31988907 C1.72236237 188.52006787 5.67438198 211.67438198 25 231 C25.92039062 231.92039062 25.92039062 231.92039062 26.859375 232.859375 C41.63479794 246.62451261 61.83537386 255.76736978 80 264 C104.50724551 275.14240918 127.41727174 288.77493296 148.234375 305.9296875 C169.1528966 323.13466048 189.67625281 339.60377133 218 338 C223.59272904 337.05514143 228.53139569 335.346699 233.5625 332.75 C235.2640625 331.88375 235.2640625 331.88375 237 331 C237.66 331.33 238.32 331.66 239 332 C228.77455955 339.66908034 216.22243887 341.9864414 203.671875 340.67578125 C182.89922219 336.85272919 166.71173318 323.21313525 150.546875 310.5546875 C122.56248842 288.6481969 92.12648045 270.19107317 59 257 C57 256 57 256 55.2734375 254.66015625 C52.51562861 252.64629237 49.61975552 251.07879049 46.625 249.4375 C41.28801327 246.4462538 36.18541175 243.21669867 31.1875 239.6875 C30.58309082 239.26718506 29.97868164 238.84687012 29.35595703 238.41381836 C25.12255051 235.36765153 25.12255051 235.36765153 24 232 C23.40960937 231.71898437 22.81921875 231.43796875 22.2109375 231.1484375 C14.19071269 226.982455 8.22786965 213.94286495 5 206 C4.8246875 205.08089844 4.649375 204.16179687 4.46875 203.21484375 C4.3140625 202.48394531 4.159375 201.75304687 4 201 C3.34 200.67 2.68 200.34 2 200 C1.57588107 197.32002766 1.26117769 194.69595249 1 192 C0.82447467 190.67030286 0.64579689 189.34101817 0.46401978 188.01216125 C-1.70923911 170.18981077 -1.16516 152.2569555 -1.00085878 134.3408525 C-0.95972859 129.60442837 -0.93093169 124.86792807 -0.90072632 120.13142395 C-0.84192484 111.19659776 -0.77231923 102.26189107 -0.69865549 93.32717639 C-0.61521087 83.14072577 -0.54407928 72.95420019 -0.47388959 62.76765096 C-0.32945242 41.84499033 -0.16985263 20.92246876 0 0 Z " fill="#0E5360" transform="translate(571,495)"/>
<path d="M0 0 C0.33 0 0.66 0 1 0 C1.07035647 13.98727802 1.12291776 27.97452824 1.15543652 41.96194744 C1.17104898 48.45784864 1.19220633 54.95363041 1.22631836 61.44946289 C1.2590696 67.72590613 1.2768862 74.00223495 1.28463173 80.2787571 C1.29014702 82.66557426 1.30091657 85.05238562 1.31719017 87.43915367 C1.43928716 106.09963795 1.39096829 123.04757107 -12.0625 137.625 C-21.01208029 145.83544085 -31.55732536 152.16925091 -42.15527344 157.98046875 C-44.09564067 159.05285805 -46.02136073 160.14845067 -47.9453125 161.25 C-54.34225501 164.90429204 -60.75922339 168.44358265 -67.375 171.6875 C-72.31900411 174.11741349 -77.0492407 176.72688982 -81.734375 179.62109375 C-83.8126484 180.88597394 -85.91565417 182.04442751 -88.0625 183.1875 C-103.55934885 191.72993258 -117.88703903 202.3802459 -132 213 C-134.01716075 214.51450413 -136.03493767 216.02817326 -138.05371094 217.54052734 C-139.31894491 218.48929412 -140.5827023 219.44003432 -141.84472656 220.39306641 C-154.08822212 229.60410689 -166.95940377 238.67623067 -183 237 C-192.90839471 234.32284196 -198.66115437 229.41814073 -203.95825195 220.77124023 C-211.90664948 206.85439844 -217.34602567 189.05966203 -217 173 C-215.05018852 175.92471722 -214.55973549 177.40592065 -213.921875 180.76171875 C-213.73375244 181.70829346 -213.54562988 182.65486816 -213.35180664 183.63012695 C-213.15321045 184.63906006 -212.95461426 185.64799316 -212.75 186.6875 C-209.39713871 202.81520315 -205.02413259 219.44575175 -192.125 230.625 C-185.6423996 234.81962379 -178.44818731 234.70348877 -171 234 C-167.40514361 233.08964788 -164.27907765 231.71786935 -161 230 C-160.24847656 229.61070312 -159.49695313 229.22140625 -158.72265625 228.8203125 C-150.26534176 224.0639526 -142.6942243 217.87462022 -135 212 C-125.84617328 205.03522479 -116.68360703 198.22105386 -107 192 C-106.34789551 191.57283691 -105.69579102 191.14567383 -105.02392578 190.70556641 C-90.6139713 181.26840751 -75.61303677 173.13519665 -60.39208984 165.09375 C-57.28238928 163.45082895 -54.17566614 161.80236799 -51.07003784 160.15176392 C-49.31328967 159.22103114 -47.55234632 158.29823001 -45.79125977 157.37573242 C-34.1052093 151.178442 -23.46350453 144.29421107 -14 135 C-13.12021484 134.13955078 -13.12021484 134.13955078 -12.22265625 133.26171875 C1.68949931 118.42916613 -0.68808596 95.3503216 -0.5859375 76.46484375 C-0.56718206 74.24710912 -0.54760557 72.0293813 -0.5272522 69.81166077 C-0.47638656 64.03331557 -0.43651989 58.25494734 -0.39910889 52.47650146 C-0.35878012 46.55654419 -0.307821 40.63667889 -0.2578125 34.71679688 C-0.16159432 23.14459628 -0.07702011 11.5723432 0 0 Z " fill="#126777" transform="translate(422,568)"/>
<path d="M0 0 C0.33 0 0.66 0 1 0 C1.68518784 13.20889882 -0.63843121 22.63010984 -9 33 C-16.53155914 40.91371014 -25.80283632 46.43508501 -36.83203125 47.30078125 C-49.92535423 47.33932882 -59.46072962 45.24958864 -70 37 C-70.46776855 36.14559326 -70.93553711 35.29118652 -71.41748047 34.41088867 C-75.61287024 30.494319 -80.24342621 31.3841137 -85.765625 31.51171875 C-86.91415955 31.51879349 -88.06269409 31.52586823 -89.24603271 31.53315735 C-92.91468411 31.56114768 -96.58180983 31.62389948 -100.25 31.6875 C-102.73695713 31.71257666 -105.22393818 31.73539092 -107.7109375 31.75585938 C-113.80781228 31.81098975 -119.90379715 31.89466408 -126 32 C-125.83766876 32.53991074 -125.67533752 33.07982147 -125.50808716 33.63609314 C-124.90934016 36.42180051 -124.87280686 38.97197555 -124.87060547 41.82250977 C-124.86587723 43.57936852 -124.86587723 43.57936852 -124.86105347 45.37171936 C-124.8630777 46.63221603 -124.86510193 47.89271271 -124.8671875 49.19140625 C-124.86623077 50.48819809 -124.86527405 51.78498993 -124.86428833 53.12107849 C-124.86281605 55.86222528 -124.86495118 58.60333943 -124.86962891 61.34448242 C-124.87533157 64.8573214 -124.87204084 68.37008407 -124.86605644 71.88292027 C-124.86157452 75.23575505 -124.86471207 78.5885693 -124.8671875 81.94140625 C-124.86516327 83.20392715 -124.86313904 84.46644806 -124.86105347 85.76722717 C-124.86420563 86.93531418 -124.86735779 88.10340118 -124.87060547 89.30688477 C-124.87140106 90.33628677 -124.87219666 91.36568878 -124.87301636 92.42628479 C-125 95 -125 95 -126 98 C-116.86364889 98.02321449 -107.72730801 98.04096143 -98.5909338 98.05181217 C-94.34812818 98.0570211 -90.1053428 98.0640825 -85.86254883 98.07543945 C-81.76471827 98.08633919 -77.66690713 98.09229182 -73.56906319 98.09487724 C-72.00904599 98.09671874 -70.4490298 98.10031468 -68.88902092 98.10573006 C-66.69674289 98.11303464 -64.50454418 98.11398699 -62.31225586 98.11352539 C-61.06649277 98.115746 -59.82072968 98.11796661 -58.53721619 98.12025452 C-54.93815282 98.06478842 -54.93815282 98.06478842 -51.16798401 97.43040466 C-48 97 -48 97 -46 98 C-43.62597499 98.07116382 -41.24999323 98.08409085 -38.875 98.0625 C-37.59367188 98.05347656 -36.31234375 98.04445313 -34.9921875 98.03515625 C-34.00476563 98.02355469 -33.01734375 98.01195312 -32 98 C-31.74347656 97.1028125 -31.48695313 96.205625 -31.22265625 95.28125 C-27.82209534 86.15514403 -19.35385722 80.38189174 -11.0625 75.96875 C-5.77128163 73.73651725 -0.40799632 73.72707827 5.25 73.6875 C6.03109131 73.68186035 6.81218262 73.6762207 7.61694336 73.67041016 C11.84895417 73.72403168 15.13990266 74.06223114 19 76 C16.14019203 76.82313751 13.66971898 77.10040226 10.69921875 77.02734375 C9.88646484 77.01509766 9.07371094 77.00285156 8.23632812 76.99023438 C6.54873723 76.9553187 4.86122557 76.91631348 3.17382812 76.87304688 C-8.9250184 76.71071034 -16.88859684 81.7075377 -25.39453125 89.8984375 C-26.94397498 91.92666312 -27.97854793 93.84681538 -29.1003418 96.13134766 C-29.45710495 96.85488434 -29.8138681 97.57842102 -30.18144226 98.32388306 C-30.45156631 98.87700165 -30.72169037 99.43012024 -31 100 C-63.01130239 100.83083107 -94.97603351 101.09282309 -127 101 C-127 77.57 -127 54.14 -127 30 C-113.8515625 29.7834375 -113.8515625 29.7834375 -100.4375 29.5625 C-97.68204834 29.49877197 -94.92659668 29.43504395 -92.08764648 29.36938477 C-89.89048648 29.34893027 -87.69329986 29.33109514 -85.49609375 29.31640625 C-84.36594849 29.28059448 -83.23580322 29.24478271 -82.07141113 29.20788574 C-74.15698491 29.20177422 -74.15698491 29.20177422 -70.77363586 31.53601074 C-68.90332031 33.42016602 -68.90332031 33.42016602 -67.37994385 35.30128479 C-65.4080518 37.72869009 -63.06559024 38.95329006 -60.3125 40.375 C-59.40113281 40.85710937 -58.48976563 41.33921875 -57.55078125 41.8359375 C-49.21835193 45.63848564 -37.65320545 45.22439474 -28.84375 43.31640625 C-26.4034083 42.38583291 -24.24894717 41.32460925 -22 40 C-21.22527344 39.57589844 -20.45054687 39.15179688 -19.65234375 38.71484375 C-10.63848975 33.31255062 -4.70966381 25.1306024 -2 15 C-1.07502255 10.03285839 -0.5092296 5.02529215 0 0 Z " fill="#125D6B" transform="translate(729,450)"/>
<path d="M0 0 C0 0.33 0 0.66 0 1 C-0.95777344 1.02578125 -1.91554688 1.0515625 -2.90234375 1.078125 C-36.69576952 2.35739849 -64.27788346 19.20004532 -88.546875 41.73046875 C-90.70242371 43.72469454 -92.89486135 45.65283403 -95.125 47.5625 C-102.40566288 53.92381238 -108.79867135 60.79035555 -114.83203125 68.33984375 C-116.73154887 70.67060321 -118.6995496 72.8658959 -120.75 75.0625 C-131.25516623 86.79988255 -139.72032787 100.2975059 -147.70629883 113.82104492 C-148.60808916 115.3399124 -149.52021082 116.85267306 -150.44018555 118.3605957 C-154.18810605 124.51472373 -157.6236397 130.79016337 -160.9375 137.1875 C-161.46327637 138.20142822 -161.98905273 139.21535645 -162.53076172 140.26000977 C-182.72367135 179.40908341 -195.41327169 220.40339979 -206 263 C-206.33 263 -206.66 263 -207 263 C-207.15121851 258.13168968 -206.70389056 254.0026248 -205.46875 249.296875 C-205.15292969 248.0696875 -204.83710938 246.8425 -204.51171875 245.578125 C-204.17785156 244.31484375 -203.84398437 243.0515625 -203.5 241.75 C-202.83900058 239.22514698 -202.18430794 236.69880939 -201.53125 234.171875 C-201.23798828 233.0590918 -200.94472656 231.94630859 -200.64257812 230.79980469 C-199.88815379 227.99143625 -199.88815379 227.99143625 -200 225 C-199.34 225 -198.68 225 -198 225 C-197.91145752 224.44924805 -197.82291504 223.89849609 -197.73168945 223.33105469 C-196.31088361 215.38742177 -193.82117658 207.85604153 -191.1875 200.25 C-190.9493457 199.55835754 -190.71119141 198.86671509 -190.46582031 198.15411377 C-180.3285524 168.86300041 -167.32393517 140.36735134 -151 114 C-150.63197266 113.40316406 -150.26394531 112.80632812 -149.88476562 112.19140625 C-141.17488818 98.1492699 -131.68684884 84.60787053 -121 72 C-120.23042969 71.04609375 -119.46085937 70.0921875 -118.66796875 69.109375 C-112.93692289 62.05629895 -106.73480595 55.55350628 -100.3125 49.125 C-99.51666504 48.32835937 -98.72083008 47.53171875 -97.90087891 46.7109375 C-73.70453664 22.74082324 -36.47163976 -6.51279281 0 0 Z " fill="#136473" transform="translate(392,270)"/>
<path d="M0 0 C21.79391221 0.77835401 39.54370776 15.72171276 55.52734375 28.95703125 C57.20191279 30.34060093 58.89823748 31.6981816 60.61328125 33.03125 C62.76566438 34.80670187 64.47402755 36.54826045 66.25 38.6875 C68.78710506 41.66750487 71.42561412 44.41661568 74.25 47.125 C80.1192157 52.92422505 85.0428361 59.42413142 90 66 C90.70125 66.92941406 91.4025 67.85882813 92.125 68.81640625 C105.91167115 87.46732629 117.52059816 107.33264798 128 128 C128.36947754 128.7228418 128.73895508 129.44568359 129.11962891 130.19042969 C136.94079432 145.62204209 143.01323846 161.79100293 149 178 C149.38575195 179.04285156 149.77150391 180.08570313 150.16894531 181.16015625 C158.96417178 205.29627174 164.78845991 230.53952379 169.5625 255.75 C169.69078186 256.4195874 169.81906372 257.0891748 169.95123291 257.77905273 C171.24227233 264.58554592 172.33981639 271.06426027 172 278 C169.77661736 274.28050378 169.1586179 270.31697089 168.4140625 266.11328125 C168.27100677 265.33800583 168.12795105 264.56273041 167.9805603 263.76396179 C167.5229528 261.28115437 167.07326013 258.79701074 166.625 256.3125 C166.0390496 253.0784548 165.44845482 249.84532541 164.8515625 246.61328125 C164.63140472 245.41954391 164.63140472 245.41954391 164.40679932 244.20169067 C163.2138008 237.8603977 161.79410789 231.58743538 160.23794556 225.32575989 C159.53384403 222.46419996 159 219.96093749 159 217 C158.34 216.67 157.68 216.34 157 216 C156.74813631 214.36715491 156.50622601 212.73218216 156.31347656 211.09130859 C155.73443629 207.22833429 154.51837329 203.54002911 153.375 199.8125 C153.10993652 198.94173828 152.84487305 198.07097656 152.57177734 197.17382812 C149.64732005 187.68596785 146.42836307 178.31673027 143 169 C142.72526855 168.24412598 142.45053711 167.48825195 142.16748047 166.70947266 C128.27625337 128.90402688 108.2492461 92.35923995 83 61 C82.175 59.97003906 81.35 58.94007813 80.5 57.87890625 C69.16943706 43.98418163 56.44130752 31.61650577 42 21 C41.1646875 20.35804688 40.329375 19.71609375 39.46875 19.0546875 C27.5675288 10.20811308 14.18646858 4.92391684 0 1 C0 0.67 0 0.34 0 0 Z " fill="#126473" transform="translate(646,300)"/>
<path d="M0 0 C15.51 0 31.02 0 47 0 C47 0.33 47 0.66 47 1 C32.15 1.33 17.3 1.66 2 2 C10.26529816 24.72956995 24.96222118 34.12230898 45.8125 44.6875 C48.19887182 45.91095233 50.5844997 47.1357137 52.96875 48.36328125 C53.56226761 48.66850708 54.15578522 48.97373291 54.76728821 49.28820801 C63.16759979 53.61848086 71.45302241 58.15766817 79.71826172 62.73925781 C81.68259029 63.82461976 83.65369162 64.89559014 85.62890625 65.9609375 C105.09682885 76.69055068 123.19114064 89.90354935 140.625 103.640625 C158.80382756 118.63481647 158.80382756 118.63481647 181.234375 123.3984375 C188.39171061 122.36729593 193.52496905 119.00454188 198.25 113.625 C207.4632748 100.98912311 210.37379872 84.9109552 214 70 C214.33 70 214.66 70 215 70 C214.64494881 78.54970866 213.13912416 86.04124067 210.375 94.125 C210.05660156 95.13175781 209.73820313 96.13851562 209.41015625 97.17578125 C205.69582633 108.26140685 199.29693547 118.00122521 189.11328125 124.13671875 C182.22829735 126.94925376 174.37000234 126.5230533 167.48046875 124.05859375 C157.91321132 119.97555948 150.1583041 114.17355085 142.12548828 107.69677734 C130.41163857 98.34561085 118.50195767 89.19710096 105.83691406 81.16552734 C104.60816426 80.385882 103.38354891 79.59968367 102.16308594 78.80712891 C84.12213135 67.11080977 64.71794258 57.49622584 45.59375 47.71484375 C26.9008688 38.1320114 8.59026819 27.90077748 0.59375 7.2890625 C0 5 0 5 0 0 Z " fill="#126879" transform="translate(603,679)"/>
<path d="M0 0 C13.37811535 0 26.74275528 0.02121412 40.1171875 0.21875 C41.7224204 0.24130451 43.32765524 0.26372162 44.93289185 0.28601074 C49.07216367 0.34384072 53.21140727 0.4034823 57.35064697 0.46356201 C61.60874855 0.52502594 65.86687532 0.58469268 70.125 0.64453125 C78.41669167 0.76130731 86.70835428 0.88000596 95 1 C95.47920898 1.89928223 95.95841797 2.79856445 96.45214844 3.72509766 C97.08780069 4.91313406 97.72354787 6.10111968 98.359375 7.2890625 C98.83189697 8.17670288 98.83189697 8.17670288 99.31396484 9.08227539 C104.33046247 18.44072853 111.18695666 24.55143833 121.34765625 28.203125 C122.22292969 28.46609375 123.09820313 28.7290625 124 29 C124 29.33 124 29.66 124 30 C115.82189011 29.64443 109.29648595 25.32981093 103.3125 19.9375 C100 16 100 16 93 3 C62.64 3 32.28 3 1 3 C1.33 5.97 1.66 8.94 2 12 C2.08258884 14.22601821 2.12774657 16.45384732 2.12939453 18.68139648 C2.13412277 20.53262367 2.13412277 20.53262367 2.13894653 22.42124939 C2.1369223 23.72469803 2.13489807 25.02814667 2.1328125 26.37109375 C2.13348737 27.74349484 2.13445893 29.11589582 2.13571167 30.48829651 C2.13717653 33.34499261 2.13507102 36.2016572 2.13037109 39.05834961 C2.12463645 42.72247756 2.12798385 46.38653285 2.13394356 50.05065823 C2.13754976 52.87558037 2.13641097 55.70048514 2.13381577 58.52540779 C2.1328246 60.53406446 2.13586068 62.5427218 2.13894653 64.55137634 C2.13579437 65.76346268 2.13264221 66.97554901 2.12939453 68.22436523 C2.12859894 69.29420151 2.12780334 70.36403778 2.12698364 71.46629333 C2 74 2 74 1 76 C16.51 75.67 32.02 75.34 48 75 C48.66 73.02 49.32 71.04 50 69 C57.3526368 58.60489281 66.03797442 53.3849426 78.1875 50.5 C78.94796631 50.31518066 79.70843262 50.13036133 80.49194336 49.93994141 C85.66498443 48.85105829 89.03912589 49.16020563 94 51 C94 51.33 94 51.66 94 52 C93.11699219 52.03738281 92.23398437 52.07476563 91.32421875 52.11328125 C76.12094677 52.94611355 65.65043487 56.11699596 54.703125 66.8984375 C52.96401786 68.86343139 52.96401786 68.86343139 52.12623596 70.92776489 C50.96245424 73.3253471 49.87349033 75.09480206 48 77 C44.33648149 78.1242012 40.81436835 77.93521692 37.01171875 77.78125 C36.0731604 77.77319336 35.13460205 77.76513672 34.16760254 77.75683594 C30.67343551 77.71508928 27.18038642 77.60339465 23.6875 77.5 C15.870625 77.335 8.05375 77.17 0 77 C0 51.59 0 26.18 0 0 Z " fill="#0C4550" transform="translate(602,575)"/>
<path d="M0 0 C3.16335416 3.08154328 6.04887591 6.19566223 8.75 9.6875 C12.26321091 14.13844766 15.95299223 18.3695481 19.77734375 22.5546875 C21.91048395 24.90151662 23.98632073 27.29034586 26.0625 29.6875 C29.12756174 33.13947288 32.34377387 36.2059638 35.8671875 39.18359375 C38.29841728 41.25414658 40.64510121 43.40564316 43 45.5625 C48.06317217 50.1341778 53.32730243 54.21820162 59 58 C59.36914349 60.86981392 59.36914349 60.86981392 59.36076355 64.61843872 C59.36332682 65.30618437 59.3658901 65.99393001 59.36853105 66.70251644 C59.3734916 69.0182211 59.35693946 71.33328071 59.34057617 73.64892578 C59.33973039 75.30437199 59.34020409 76.95981934 59.34190369 78.61526489 C59.34276696 83.11923291 59.32508761 87.62296287 59.30418181 92.1268754 C59.28547024 96.83008535 59.28366894 101.53330032 59.28010559 106.23654175 C59.27076885 115.14718534 59.2461331 124.05771896 59.21605712 132.96831405 C59.1825637 143.11083637 59.16603985 153.25336385 59.15097082 163.39592767 C59.11958492 184.26401324 59.06679286 205.1319997 59 226 C58.67 226 58.34 226 58 226 C58 170.89 58 115.78 58 59 C56.35 58.34 54.7 57.68 53 57 C51.26171875 55.73828125 51.26171875 55.73828125 49.6875 54.3125 C49.08292969 53.77238281 48.47835937 53.23226562 47.85546875 52.67578125 C47.24316406 52.12277344 46.63085938 51.56976563 46 51 C44.83352264 49.99977918 43.66684532 48.99979154 42.5 48 C35.84814001 42.17470249 29.40286391 36.09721684 23 30 C22.43708252 29.48211914 21.87416504 28.96423828 21.29418945 28.43066406 C20 27 20 27 20 25 C19.34 25 18.68 25 18 25 C12.30711724 19.64674945 7.7563181 12.87090234 3.0390625 6.66015625 C1.25161577 4.20793908 1.25161577 4.20793908 0 3 C-0.391875 3.59683594 -0.78375 4.19367188 -1.1875 4.80859375 C-10.517135 18.34058589 -22.63554742 29.70366322 -34.1875 41.3125 C-34.98905518 42.11880859 -35.79061035 42.92511719 -36.61645508 43.75585938 C-40.26360649 47.39256493 -43.86474204 50.90891539 -48 54 C-48.66 53.67 -49.32 53.34 -50 53 C-49.00363813 51.97561545 -48.00260713 50.95577287 -47 49.9375 C-46.443125 49.36902344 -45.88625 48.80054688 -45.3125 48.21484375 C-43.33766921 46.32340953 -41.32318524 44.53557322 -39.25390625 42.75 C-34.97021342 39.02420882 -30.93906733 35.08735483 -26.9375 31.0625 C-26.26912109 30.39798828 -25.60074219 29.73347656 -24.91210938 29.04882812 C-17.96832274 22.0915453 -11.66300647 14.70026288 -5.5625 7 C-5.02173828 6.32066406 -4.48097656 5.64132812 -3.92382812 4.94140625 C-2.61416673 3.29563706 -1.3068282 1.6480198 0 0 Z " fill="#198093" transform="translate(512,435)"/>
<path d="M0 0 C0.66 0.33 1.32 0.66 2 1 C1.02561478 1.65645004 0.05122955 2.31290009 -0.9526825 2.98924255 C-5.2633563 7.36008304 -4.77585416 12.66014919 -4.7988739 18.45399475 C-4.78548864 20.02670762 -4.77153845 21.59941577 -4.75708008 23.17211914 C-4.76361693 24.83663118 -4.77279961 26.50113461 -4.78442383 28.1656189 C-4.80859452 32.68070666 -4.79611612 37.19504255 -4.77736115 41.71012807 C-4.76423508 46.44601364 -4.78579682 51.18173641 -4.80387878 55.91758728 C-4.83308181 64.89763425 -4.83268291 73.87741658 -4.82095498 82.85749382 C-4.80511632 96.0019941 -4.83392754 109.1464105 -4.86232281 122.29087734 C-4.86645992 124.23806187 -4.87057898 126.18524643 -4.87467957 128.13243103 C-4.87673249 129.08408675 -4.87878542 130.03574247 -4.88090056 131.01623625 C-4.89205403 136.64254343 -4.89491854 142.26877729 -4.89011252 147.89509308 C-4.88755417 151.41163515 -4.88866449 154.92817124 -4.89025116 158.44471359 C-4.89001691 160.06310461 -4.88806454 161.68149654 -4.88416862 163.29988289 C-4.82321293 189.23481939 -4.82321293 189.23481939 -8 194 C-7.67 131.96 -7.34 69.92 -7 6 C-6.01 5.67 -5.02 5.34 -4 5 C-4 4.34 -4 3.68 -4 3 C-2 1.375 -2 1.375 0 0 Z " fill="#136B7C" transform="translate(459,490)"/>
<path d="M0 0 C0.33 0 0.66 0 1 0 C1.04673987 25.66054854 1.08199861 51.32109069 1.10362434 76.98167324 C1.11393284 88.89656943 1.12798508 100.81143916 1.15087891 112.72631836 C1.17082577 123.11243856 1.18371954 133.4985396 1.18817699 143.88467842 C1.19078216 149.38302201 1.19689667 154.88131077 1.21146011 160.37963676 C1.22506446 165.5579599 1.22921685 170.73620575 1.22621536 175.91454506 C1.22676425 177.81197403 1.23072464 179.70940567 1.23841095 181.60681915 C1.24841688 184.20492781 1.2459484 186.80274778 1.24050903 189.40086365 C1.24633472 190.14505584 1.2521604 190.88924803 1.25816262 191.65599149 C1.17263873 206.85386934 -6.4044757 218.66320295 -16 230 C-16.88288756 231.06764627 -17.76569359 232.13535996 -18.6484375 233.203125 C-25.65983255 241.59945805 -33.15480199 249.3825658 -41 257 C-41 254 -41 254 -38.875 251.65234375 C-37.451875 250.30849609 -37.451875 250.30849609 -36 248.9375 C-31.39891865 244.52269725 -27.38667997 239.91816055 -23.55859375 234.80078125 C-23.04425781 234.20652344 -22.52992188 233.61226562 -22 233 C-21.34 233 -20.68 233 -20 233 C-19.76925781 232.47664062 -19.53851563 231.95328125 -19.30078125 231.4140625 C-17.55913848 228.18182456 -15.36568325 225.3195146 -13.1875 222.375 C-5.10207522 211.21923428 -1.81705078 202.4283855 -1.90234375 188.56640625 C-1.9037587 187.68846909 -1.90517365 186.81053192 -1.90663147 185.9059906 C-1.91219179 183.12479118 -1.92473679 180.34367474 -1.9375 177.5625 C-1.94252013 175.66731888 -1.94708214 173.77213648 -1.95117188 171.87695312 C-1.9621482 167.25127052 -1.97938518 162.62564929 -2 158 C-1.34 158 -0.68 158 0 158 C0 105.86 0 53.72 0 0 Z " fill="#1489A1" transform="translate(497,199)"/>
<path d="M0 0 C7.78368839 0.33842123 13.92156361 3.72312781 19.2421875 9.38671875 C28.49071034 21.33999828 31.16994501 33.88156312 31.12025452 48.61779785 C31.12110894 49.55568319 31.12196337 50.49356853 31.12284368 51.45987463 C31.12448384 54.58589972 31.11900117 57.71187052 31.11352539 60.83789062 C31.11324318 63.08534748 31.11340192 65.33280443 31.1139679 67.58026123 C31.11425453 73.67051045 31.10837931 79.76073993 31.10139394 85.85098457 C31.09513824 92.21978785 31.09455484 98.58859159 31.09336853 104.95739746 C31.09061463 115.64347718 31.08437047 126.32954912 31.07543945 137.015625 C31.0662524 148.01953088 31.05917789 159.0234348 31.05493164 170.02734375 C31.05453756 171.04574356 31.05453756 171.04574356 31.05413551 172.08471709 C31.05283042 175.49092025 31.05156672 178.89712343 31.05032361 182.30332661 C31.03996656 210.5355561 31.02228722 238.7677776 31 267 C30.67 267 30.34 267 30 267 C29.83498165 253.26029908 29.68175007 239.52048509 29.53664017 225.78055954 C29.51228989 223.47576101 29.48778273 221.17096414 29.46311569 218.86616898 C29.15654364 190.10868334 28.95658171 161.35390336 29.0008378 132.59487844 C29.00389608 130.57702044 29.0066005 128.55916225 29.00921249 126.54130363 C29.02646447 113.49602688 29.05383083 100.45087471 29.11018467 87.4057045 C29.12937363 82.5484261 29.1406515 77.69114895 29.15031242 72.83384323 C29.1567636 70.58500155 29.16687044 68.33616672 29.18103218 66.08736038 C30.30406668 39.41593357 30.30406668 39.41593357 20 16 C19.70222656 15.36835938 19.40445312 14.73671875 19.09765625 14.0859375 C15.25275962 6.77926562 7.45754296 3.4603779 0 1 C0 0.67 0 0.34 0 0 Z " fill="#0D383D" transform="translate(392,300)"/>
<path d="M0 0 C-0.94359375 0.31130859 -0.94359375 0.31130859 -1.90625 0.62890625 C-11.09265619 3.93545908 -16.7786578 8.14861118 -21.375 16.875 C-26.46730256 27.95662318 -27.16455074 39.42260094 -27.09765625 51.47338867 C-27.09619598 52.47943649 -27.09473572 53.48548431 -27.0932312 54.52201843 C-27.0894463 56.69086899 -27.08335232 58.85971652 -27.07516479 61.02855492 C-27.06233236 64.46283462 -27.05586838 67.89707543 -27.05102539 71.33137512 C-27.03963431 78.61676762 -27.02038202 85.90212784 -27 93.1875 C-26.97638144 101.64308253 -26.95600472 110.09864676 -26.94406128 118.55425453 C-26.93758822 121.93440337 -26.92508314 125.31449564 -26.91235352 128.69462585 C-26.90872076 130.76801505 -26.90536906 132.84140476 -26.90234375 134.91479492 C-26.89717743 135.85156067 -26.89201111 136.78832642 -26.88668823 137.753479 C-26.88632096 142.28772436 -27.0699612 146.53775038 -28 151 C-27.01 150.67 -26.02 150.34 -25 150 C-23.99066406 150.144375 -22.98132813 150.28875 -21.94140625 150.4375 C-17.22669781 151.11036225 -12.68939997 151.06559702 -7.9375 151 C0.4339199 150.93539551 8.65970702 151.21503125 17 152 C17 152.66 17 153.32 17 154 C10.60962769 154.02527062 4.21926817 154.04283317 -2.17114258 154.05493164 C-4.34692873 154.05997308 -6.52271147 154.06680607 -8.69848633 154.07543945 C-11.81853067 154.08751338 -14.93853038 154.09323005 -18.05859375 154.09765625 C-19.52733192 154.10539818 -19.52733192 154.10539818 -21.02574158 154.11329651 C-21.92659988 154.11337204 -22.82745819 154.11344757 -23.75561523 154.11352539 C-24.55281479 154.115746 -25.35001434 154.11796661 -26.17137146 154.12025452 C-28 154 -28 154 -29 153 C-29.10233959 151.47098281 -29.13519271 149.93726018 -29.14044189 148.40483093 C-29.14615204 147.4110997 -29.15186218 146.41736847 -29.15774536 145.39352417 C-29.15886322 144.29388336 -29.15998108 143.19424255 -29.16113281 142.0612793 C-29.16858017 140.33433083 -29.16858017 140.33433083 -29.17617798 138.57249451 C-29.19085497 134.73972995 -29.19761355 130.90700687 -29.203125 127.07421875 C-29.20742238 125.08614608 -29.21172028 123.0980734 -29.2160995 121.11000091 C-29.22792827 115.56074513 -29.23545289 110.0114994 -29.2388947 104.46223229 C-29.24335827 97.30538454 -29.26081893 90.14872943 -29.2898953 82.9919402 C-29.31161319 77.45207165 -29.32160459 71.91225683 -29.32293582 66.37234622 C-29.3239781 63.06871415 -29.33123293 59.76530241 -29.34775543 56.46170616 C-29.36492752 52.76167919 -29.36290734 49.06211187 -29.35644531 45.36206055 C-29.3656601 44.28468628 -29.37487488 43.20731201 -29.3843689 42.09729004 C-29.31629268 29.57095899 -26.47367747 17.12222439 -17.85546875 7.640625 C-12.80309337 2.92392703 -7.23911061 -2.24553756 0 0 Z " fill="#0F535E" transform="translate(631,301)"/>
<path d="M0 0 C0.33 0 0.66 0 1 0 C1.07035647 13.98727802 1.12291776 27.97452824 1.15543652 41.96194744 C1.17104898 48.45784864 1.19220633 54.95363041 1.22631836 61.44946289 C1.2590696 67.72590613 1.2768862 74.00223495 1.28463173 80.2787571 C1.29014702 82.66557426 1.30091657 85.05238562 1.31719017 87.43915367 C1.43928716 106.09963795 1.39096829 123.04757107 -12.0625 137.625 C-21.01208029 145.83544085 -31.55732536 152.16925091 -42.15527344 157.98046875 C-44.09564067 159.05285805 -46.02136073 160.14845067 -47.9453125 161.25 C-55.43141112 165.52699559 -62.97537489 169.55628353 -70.71484375 173.359375 C-75.54968744 175.77392239 -80.27964005 178.37008517 -85 181 C-85 180.01 -85 179.02 -85 178 C-84.2157666 177.59797363 -83.4315332 177.19594727 -82.62353516 176.78173828 C-46.0244284 159.28899541 -46.0244284 159.28899541 -14 135 C-13.41605469 134.42765625 -12.83210938 133.8553125 -12.23046875 133.265625 C1.6989048 118.45464553 -0.68802775 95.3395588 -0.5859375 76.46484375 C-0.56718206 74.24710912 -0.54760557 72.0293813 -0.5272522 69.81166077 C-0.47638656 64.03331557 -0.43651989 58.25494734 -0.39910889 52.47650146 C-0.35878012 46.55654419 -0.307821 40.63667889 -0.2578125 34.71679688 C-0.16159432 23.14459628 -0.07702011 11.5723432 0 0 Z " fill="#10525D" transform="translate(422,568)"/>
<path d="M0 0 C0.78109131 -0.00563965 1.56218262 -0.0112793 2.36694336 -0.01708984 C6.59895417 0.03653168 9.88990266 0.37473114 13.75 2.3125 C10.89019203 3.13563751 8.41971898 3.41290226 5.44921875 3.33984375 C4.63646484 3.32759766 3.82371094 3.31535156 2.98632812 3.30273438 C1.29873723 3.2678187 -0.38877443 3.22881348 -2.07617188 3.18554688 C-14.1750184 3.02321034 -22.13859684 8.0200377 -30.64453125 16.2109375 C-32.19397498 18.23916312 -33.22854793 20.15931538 -34.3503418 22.44384766 C-34.88548653 23.52915268 -34.88548653 23.52915268 -35.43144226 24.63638306 C-35.70156631 25.18950165 -35.97169037 25.74262024 -36.25 26.3125 C-68.25573686 27.14318662 -100.23393002 27.44790533 -132.25 27.3125 C-132.25 26.9825 -132.25 26.6525 -132.25 26.3125 C-130.27 26.3125 -128.29 26.3125 -126.25 26.3125 C-125.92 25.6525 -125.59 24.9925 -125.25 24.3125 C-124.45121933 24.31472061 -123.65243866 24.31694122 -122.82945251 24.31922913 C-115.28225138 24.33931012 -107.7350633 24.35451387 -100.18784237 24.36431217 C-96.30824069 24.36951899 -92.42866119 24.37657647 -88.54907227 24.38793945 C-84.80136969 24.3988468 -81.05368838 24.40479341 -77.30597115 24.40737724 C-75.87992582 24.40921739 -74.45388159 24.41281064 -73.02784538 24.41823006 C-71.02240011 24.42554467 -69.01693321 24.42590895 -67.01147461 24.42602539 C-65.87230087 24.428246 -64.73312714 24.43046661 -63.55943298 24.43275452 C-60.15624095 24.37112765 -60.15624095 24.37112765 -56.45240784 23.74290466 C-53.25 23.3125 -53.25 23.3125 -51.25 24.3125 C-48.87597499 24.38366382 -46.49999323 24.39659085 -44.125 24.375 C-42.84367188 24.36597656 -41.56234375 24.35695313 -40.2421875 24.34765625 C-39.25476563 24.33605469 -38.26734375 24.32445312 -37.25 24.3125 C-36.99347656 23.4153125 -36.73695313 22.518125 -36.47265625 21.59375 C-33.07209534 12.46764403 -24.60385722 6.69439174 -16.3125 2.28125 C-11.02128163 0.04901725 -5.65799632 0.03957827 0 0 Z " fill="#116A7F" transform="translate(734.25,523.6875)"/>
<path d="M0 0 C0 0.66 0 1.32 0 2 C-1.34191406 2.60134766 -1.34191406 2.60134766 -2.7109375 3.21484375 C-21.00530499 11.69569317 -30.87920857 24.83420006 -37.96875 43.55859375 C-43.09988464 59.18289872 -42.33999109 75.73598727 -42.4140625 91.9609375 C-42.43279924 94.56410316 -42.45237447 97.1672629 -42.4727478 99.77041626 C-42.51861094 105.88626201 -42.55611273 112.00210492 -42.58942068 118.11803019 C-42.62787057 125.09046618 -42.67721937 132.06281237 -42.72740483 139.03517222 C-42.83024796 153.35671349 -42.91966048 167.67831567 -43 182 C-43.33 182 -43.66 182 -44 182 C-44.17830431 167.69075419 -44.34372538 153.38140743 -44.49477577 139.07184696 C-44.56529718 132.42582149 -44.63978064 125.77990793 -44.72363281 119.1340332 C-44.80455345 112.70853459 -44.87465682 106.28299712 -44.93757248 99.8572979 C-44.96329793 97.41793987 -44.99278113 94.9786182 -45.02626419 92.53935432 C-45.4015259 64.80699979 -44.41894896 36.5381915 -24.33837891 15.18652344 C-18.45273631 9.21860626 -9.07785886 0 0 0 Z " fill="#0F5361" transform="translate(615,273)"/>
<path d="M0 0 C6.13354961 4.5307567 11.89494087 9.49607813 17.59960938 14.55053711 C18.79477522 15.59249454 20.00691356 16.61510335 21.22949219 17.62475586 C21.87128418 18.15649414 22.51307617 18.68823242 23.17431641 19.23608398 C23.7647876 19.71787109 24.35525879 20.1996582 24.96362305 20.69604492 C26.26416016 22.00170898 26.26416016 22.00170898 26.26416016 24.00170898 C26.92416016 24.00170898 27.58416016 24.00170898 28.26416016 24.00170898 C29.85009766 25.57592773 29.85009766 25.57592773 31.63916016 27.68920898 C32.25662109 28.41495117 32.87408203 29.14069336 33.51025391 29.88842773 C35.45877478 32.2362001 37.38575996 34.59735673 39.26416016 37.00170898 C36.26416016 37.00170898 36.26416016 37.00170898 34.38916016 35.20092773 C33.33728516 33.95762695 33.33728516 33.95762695 32.26416016 32.68920898 C8.87820385 5.89753088 -23.10578205 -18.47595748 -59.76708984 -21.14624023 C-70.19579464 -21.65800041 -80.42865521 -20.42700968 -90.73583984 -18.99829102 C-69.68042008 -40.05371078 -18.41053053 -13.23952779 0 0 Z " fill="#126575" transform="translate(705.73583984375,292.998291015625)"/>
<path d="M0 0 C0.33 0 0.66 0 1 0 C0.61820831 9.57112279 -0.20422115 19.00039904 -1.4375 28.5 C-6.12603037 65.93650905 -6.27383372 103.87837512 -3.4375 141.46484375 C-3.02776868 146.98901433 -2.88502057 152.46262243 -3 158 C-5.66877944 153.26870069 -5.71069725 148.57091998 -6.109375 143.23828125 C-6.19346619 142.14075027 -6.27755737 141.0432193 -6.36419678 139.91242981 C-7.2577907 127.0542636 -7.30377099 114.19080758 -7.26074219 101.30834961 C-7.24938269 97.88376402 -7.25611575 94.45949074 -7.2676239 91.03491592 C-7.31903342 72.95384245 -6.61271104 55.0153167 -5 37 C-4.89274597 35.80176102 -4.89274597 35.80176102 -4.7833252 34.57931519 C-4.40833306 30.50456772 -3.97296992 26.43942283 -3.5 22.375 C-3.38269531 21.29734375 -3.26539063 20.2196875 -3.14453125 19.109375 C-2.41471245 12.65871854 -1.39224188 6.34106104 0 0 Z " fill="#105B68" transform="translate(177,573)"/>
<path d="M0 0 C19.12010021 -0.09655262 38.23321843 0.18607878 57.35064697 0.46356201 C61.60874855 0.52502594 65.86687532 0.58469268 70.125 0.64453125 C78.41669167 0.76130731 86.70835428 0.88000596 95 1 C95.47920898 1.89928223 95.95841797 2.79856445 96.45214844 3.72509766 C97.08780069 4.91313406 97.72354787 6.10111968 98.359375 7.2890625 C98.83189697 8.17670288 98.83189697 8.17670288 99.31396484 9.08227539 C104.33046247 18.44072853 111.18695666 24.55143833 121.34765625 28.203125 C122.22292969 28.46609375 123.09820313 28.7290625 124 29 C124 29.33 124 29.66 124 30 C115.82189011 29.64443 109.29648595 25.32981093 103.3125 19.9375 C100 16 100 16 93 3 C62.31 3 31.62 3 0 3 C0 2.01 0 1.02 0 0 Z " fill="#155A68" transform="translate(602,575)"/>
<path d="M0 0 C0.33 0 0.66 0 1 0 C1.33 36.63 1.66 73.26 2 111 C-3.63210528 109.87357894 -3.63210528 109.87357894 -6.8203125 106.67578125 C-7.51511719 105.98395752 -8.20992187 105.29213379 -8.92578125 104.5793457 C-9.65152344 103.83128662 -10.37726562 103.08322754 -11.125 102.3125 C-12.25615234 101.16044067 -12.25615234 101.16044067 -13.41015625 99.98510742 C-23.83928331 89.21391391 -37.66181295 74.73022833 -42 60 C-41.625 57.6875 -41.625 57.6875 -41 56 C-40.5153125 57.02738281 -40.030625 58.05476563 -39.53125 59.11328125 C-33.62429049 71.41721279 -26.65012549 81.47913362 -17.3125 91.5 C-15.42692665 93.53845768 -13.63637218 95.60572083 -11.875 97.75 C-8.57446177 101.48104322 -4.74887725 104.71973241 -1 108 C-0.67 72.36 -0.34 36.72 0 0 Z " fill="#19869A" transform="translate(570,345)"/>
<path d="M0 0 C0.33 0 0.66 0 1 0 C2.49356563 10.2368805 3.54489753 20.41603997 4.125 30.75 C4.18803818 31.84136261 4.18803818 31.84136261 4.25234985 32.95477295 C4.99551364 46.17623716 5.18836566 59.38444159 5.1875 72.625 C5.18840637 73.52021362 5.18931274 74.41542725 5.19024658 75.33776855 C5.18920781 84.3696883 5.06395327 93.37972795 4.55078125 102.3984375 C4.51228561 103.08064362 4.47378998 103.76284973 4.43412781 104.46572876 C4.18507915 108.36411822 3.70824408 112.15906645 3 116 C2.67 116 2.34 116 2 116 C2.00444122 115.24278152 2.00888245 114.48556305 2.01345825 113.70539856 C2.06731985 104.07446824 2.10359447 94.44355552 2.125 84.8125 C2.12671204 84.04662945 2.12842407 83.2807589 2.13018799 82.49168015 C2.17449626 60.05858742 1.77245273 37.76375618 0.1875 15.37939453 C-0.09703672 10.25106466 -0.08613608 5.13406923 0 0 Z " fill="#106271" transform="translate(850,596)"/>
<path d="M0 0 C1.52485651 2.80718557 2.41334419 5.3377413 3.04296875 8.46484375 C3.22585449 9.3369751 3.40874023 10.20910645 3.59716797 11.10766602 C3.79197754 12.04151123 3.98678711 12.97535645 4.1875 13.9375 C9.4755864 38.05013317 17.17441944 62.74100544 38 78 C49.27462306 84.78286146 58.57377395 86.40792502 71.5625 85.625 C73.21862305 85.53992188 73.21862305 85.53992188 74.90820312 85.453125 C77.6062496 85.31296674 80.30317356 85.16170093 83 85 C82 87 82 87 80.23632812 87.61010742 C64.02956339 90.43567547 48.9658482 87.92931387 35.39453125 78.70703125 C34.60433594 78.14371094 33.81414062 77.58039063 33 77 C31.948125 76.2575 30.89625 75.515 29.8125 74.75 C23.66923098 68.74324807 19.13801662 61.48026082 15 54 C14.34 53.34 13.68 52.68 13 52 C12.30009532 50.00527168 11.61412154 48.00503403 10.98046875 45.98828125 C10.01462149 43.04456351 8.93604072 40.15431376 7.84912109 37.25366211 C5.24996752 30.22013635 3.18069888 23.213419 1.625 15.875 C1.45750244 15.09398926 1.29000488 14.31297852 1.11743164 13.50830078 C0.19916113 8.91843168 -0.16134912 4.67912438 0 0 Z " fill="#125F6D" transform="translate(176,747)"/>
<path d="M0 0 C4.6031636 1.48849963 7.90393355 4.13556342 11.5625 7.1875 C44.75863711 35.05487495 44.75863711 35.05487495 86 43 C91.59272904 42.05514143 96.53139569 40.346699 101.5625 37.75 C102.696875 37.1725 103.83125 36.595 105 36 C105.66 36.33 106.32 36.66 107 37 C96.77455955 44.66908034 84.22243887 46.9864414 71.671875 45.67578125 C49.97010486 41.68173206 33.01165737 26.94167959 16.16845703 13.69384766 C14.12287339 12.09598014 12.06419731 10.51778539 9.99609375 8.94921875 C9.08827148 8.25977173 9.08827148 8.25977173 8.16210938 7.55639648 C6.54599881 6.33218816 4.92738492 5.11128651 3.30859375 3.890625 C1 2 1 2 0 0 Z " fill="#12606D" transform="translate(703,790)"/>
<path d="M0 0 C9.95684171 0.32118844 17.57583414 4.64357963 24.39453125 11.8671875 C28.01457626 16.67629839 32 22.87156361 32 29 C32.66 29.33 33.32 29.66 34 30 C34.73137665 43.51692398 32.10506049 55.96206317 23.5 66.5625 C17.6997276 72.79482249 10.36589856 77.94701087 1.75 78.9375 C-0.10625 78.9684375 -0.10625 78.9684375 -2 79 C0.83662344 77.51353142 3.67330827 76.38518337 6.6875 75.3125 C17.39635126 71.02265089 24.03496272 63.66764061 28.8125 53.3125 C32.79479879 42.20398233 31.73092821 30.96409675 26.78125 20.3984375 C20.68659229 9.19103916 11.76929758 4.94735328 0 1 C0 0.67 0 0.34 0 0 Z " fill="#136877" transform="translate(697,627)"/>
<path d="M0 0 C3.57640426 3.15064185 7.36426854 6.524679 7.828125 11.484375 C7.92592989 16.86364421 7.80536227 20.75398074 4.625 25.3125 C0.6788977 29.2801657 -2.51023025 31.19022002 -8.1875 31.5625 C-12.93667035 31.47551886 -16.47680731 30.28081063 -19.85546875 26.77734375 C-21.0777378 25.32910899 -22.23258349 23.82452185 -23.375 22.3125 C-23.045 21.6525 -22.715 20.9925 -22.375 20.3125 C-21.203125 21.80989583 -20.03125 23.30729167 -18.859375 24.8046875 C-15.79124286 27.92126383 -12.78881697 28.620696 -8.5 28.6875 C-3.73041505 28.589013 -0.99670959 27.57203863 2.625 24.3125 C5.55626926 19.64268484 5.2194797 14.63965571 4.625 9.3125 C3.16028022 5.74622576 2.01907954 4.07938069 -1.36328125 2.21875 C-7.00093331 -0.04020558 -10.74825167 0.11902184 -16.375 2.3125 C-20.29213063 5.30188917 -21.93142525 8.57457311 -22.71484375 13.41015625 C-22.96764121 15.37366527 -23.17470602 17.34294255 -23.375 19.3125 C-23.705 19.3125 -24.035 19.3125 -24.375 19.3125 C-25.23478009 8.74675797 -25.23478009 8.74675797 -22.25 4.3125 C-16.44980491 -2.42477396 -7.89353654 -3.94676827 0 0 Z " fill="#146877" transform="translate(743.375,550.6875)"/>
<path d="M0 0 C0.33 0 0.66 0 1 0 C1.20025683 6.11553563 1.34408178 12.22909604 1.43945312 18.34716797 C1.4792741 20.42074897 1.53355384 22.49411156 1.60351562 24.56689453 C2.24397083 44.05368587 -1.98749976 56.26758669 -15 71 C-15.90781305 72.08484842 -16.81256479 73.17226323 -17.71484375 74.26171875 C-24.70201521 82.64166639 -32.17487135 90.40205251 -40 98 C-40 95 -40 95 -37.875 92.65234375 C-36.92625 91.75644531 -35.9775 90.86054688 -35 89.9375 C-30.39891865 85.52269725 -26.38667997 80.91816055 -22.55859375 75.80078125 C-22.04425781 75.20652344 -21.52992188 74.61226563 -21 74 C-20.34 74 -19.68 74 -19 74 C-18.76925781 73.47664063 -18.53851563 72.95328125 -18.30078125 72.4140625 C-16.55913848 69.18182456 -14.36568325 66.3195146 -12.1875 63.375 C-4.13700428 52.26742723 -0.79382803 43.55809615 -1 29.75 C-1.08212374 19.80182907 -0.62878289 9.92578697 0 0 Z " fill="#10606F" transform="translate(496,358)"/>
<path d="M0 0 C15.51 0 31.02 0 47 0 C47 0.33 47 0.66 47 1 C32.15 1.33 17.3 1.66 2 2 C9.44239222 22.4665786 21.50411571 31.72450873 40 42 C37 43 37 43 34.03125 41.6640625 C32.84594069 40.99882411 31.66926838 40.31804526 30.5 39.625 C29.87851074 39.25995361 29.25702148 38.89490723 28.61669922 38.51879883 C15.61424739 30.68834456 3.94995085 20.22809999 0 5 C0 3.35 0 1.7 0 0 Z " fill="#0E5C6B" transform="translate(603,679)"/>
<path d="M0 0 C0.78109131 -0.00563965 1.56218262 -0.0112793 2.36694336 -0.01708984 C6.59895417 0.03653168 9.88990266 0.37473114 13.75 2.3125 C10.89019203 3.13563751 8.41971898 3.41290226 5.44921875 3.33984375 C4.63646484 3.32759766 3.82371094 3.31535156 2.98632812 3.30273438 C1.29873723 3.2678187 -0.38877443 3.22881348 -2.07617188 3.18554688 C-14.1750184 3.02321034 -22.13859684 8.0200377 -30.64453125 16.2109375 C-32.98226492 19.27103656 -34.52783828 22.86817656 -36.25 26.3125 C-43.51 26.3125 -50.77 26.3125 -58.25 26.3125 C-58.25 25.9825 -58.25 25.6525 -58.25 25.3125 C-51.22252688 24.64661422 -44.30985273 24.19483579 -37.25 24.3125 C-37.085 23.508125 -36.92 22.70375 -36.75 21.875 C-32.70670483 12.27217398 -23.74758617 5.41792698 -14.3125 1.4375 C-9.61188777 0.02648141 -4.86987589 0.03406529 0 0 Z " fill="#116475" transform="translate(734.25,523.6875)"/>
<path d="M0 0 C0.66 0 1.32 0 2 0 C2.10251672 5.12583611 2.03590199 9.94997778 1 15 C1.99 14.67 2.98 14.34 4 14 C5.51400391 14.2165625 5.51400391 14.2165625 7.05859375 14.4375 C11.77330219 15.11036225 16.31060003 15.06559702 21.0625 15 C29.4339199 14.93539551 37.65970702 15.21503125 46 16 C46 16.66 46 17.32 46 18 C39.60962769 18.02527062 33.21926817 18.04283317 26.82885742 18.05493164 C24.65307127 18.05997308 22.47728853 18.06680607 20.30151367 18.07543945 C17.18146933 18.08751338 14.06146962 18.09323005 10.94140625 18.09765625 C9.47266808 18.10539818 9.47266808 18.10539818 7.97425842 18.11329651 C7.07340012 18.11337204 6.17254181 18.11344757 5.24438477 18.11352539 C4.04858543 18.11685631 4.04858543 18.11685631 2.82862854 18.12025452 C1 18 1 18 0 17 C-0.07325168 14.13732433 -0.09238205 11.299281 -0.0625 8.4375 C-0.05798828 7.63119141 -0.05347656 6.82488281 -0.04882812 5.99414062 C-0.03700518 3.99606244 -0.01906914 1.99802217 0 0 Z " fill="#126B80" transform="translate(602,437)"/>
<path d="M0 0 C0.66 0.66 1.32 1.32 2 2 C0.81664062 1.96519531 -0.36671875 1.93039062 -1.5859375 1.89453125 C-15.54243972 1.60053909 -25.66893766 3.07790367 -37 12 C-43.5094601 18.73857154 -47.06212531 26.95658477 -49 36 C-49.66 36 -50.32 36 -51 36 C-50.54810387 26.05828509 -44.93879663 17.00842593 -38.1796875 9.96875 C-27.82689787 0.61784324 -13.70412528 -3.05813534 0 0 Z " fill="#146978" transform="translate(698,415)"/>
<path d="M0 0 C0 0.33 0 0.66 0 1 C-0.88300781 1.03738281 -1.76601563 1.07476563 -2.67578125 1.11328125 C-17.82957737 1.94340327 -28.80554364 5.05350826 -39.4921875 16.1875 C-41.77885432 18.93623939 -43.37693155 21.81878584 -45 25 C-45.99 24.67 -46.98 24.34 -48 24 C-47.34 24 -46.68 24 -46 24 C-45.7525 23.113125 -45.505 22.22625 -45.25 21.3125 C-42.32017357 13.54845997 -35.26352264 7.21204076 -28.078125 3.2578125 C-24.06263163 1.61696368 -20.02861603 0.50112985 -15.8125 -0.5 C-15.05203369 -0.68481934 -14.29156738 -0.86963867 -13.50805664 -1.06005859 C-8.33501557 -2.14894171 -4.96087411 -1.83979437 0 0 Z " fill="#146E7E" transform="translate(696,626)"/>
<path d="M0 0 C7.78368839 0.33842123 13.92156361 3.72312781 19.2421875 9.38671875 C26.33997692 18.56027677 31.77223306 30.13929223 31 42 C30.00390625 44.30859375 30.00390625 44.30859375 29 46 C28.89042969 45.03320312 28.78085937 44.06640625 28.66796875 43.0703125 C27.18031512 28.44156559 27.18031512 28.44156559 20 16 C19.70222656 15.36835938 19.40445312 14.73671875 19.09765625 14.0859375 C15.25275962 6.77926562 7.45754296 3.4603779 0 1 C0 0.67 0 0.34 0 0 Z " fill="#146A79" transform="translate(392,300)"/>
<path d="M0 0 C2.41952862 2.2410973 4.07938459 4.57718835 5.8125 7.375 C8.4464409 11.37444834 11.07761601 14.17588352 15 17 C15.55059082 17.41241943 16.10118164 17.82483887 16.66845703 18.24975586 C22.23560659 22.11661193 27.33900286 23.09127479 34 23.8125 C34.96550781 23.93302734 35.93101562 24.05355469 36.92578125 24.17773438 C39.28232655 24.46938602 41.63946662 24.74301677 44 25 C39.03910346 28.30726436 33.70627951 26.89242043 28 26 C16.66329156 22.94415541 6.73329856 15.0496224 0.7734375 4.9140625 C0 3 0 3 0 0 Z " fill="#146877" transform="translate(650,681)"/>
<path d="M0 0 C8.48213631 1.19232877 15.27743957 7.5188493 20.53515625 13.9765625 C27.63519565 23.7840836 28.68723833 34.21213224 27 46 C26.67 46 26.34 46 26 46 C25.97421875 45.05640625 25.9484375 44.1128125 25.921875 43.140625 C25.39405646 31.19273249 23.71067277 19.93094266 15 11 C10.40881633 6.97920779 5.35115633 3.89854301 0 1 C0 0.67 0 0.34 0 0 Z " fill="#116574" transform="translate(749,527)"/>
<path d="M0 0 C0.33 0 0.66 0 1 0 C3.35363703 16.3155033 5.15523826 32.56630824 3 49 C2.67 49 2.34 49 2 49 C1.71084725 43.95059318 1.42621602 38.90095754 1.14550781 33.85107422 C1.0497007 32.13844167 0.95272578 30.42587399 0.85449219 28.71337891 C0.30584173 19.13438975 -0.17322928 9.59978909 0 0 Z " fill="#126A79" transform="translate(850,596)"/>
<path d="M0 0 C0.33 0 0.66 0 1 0 C3.16144151 11.59318626 0.0765227 21.41935369 -6.08203125 31.3203125 C-8.69439788 34.97017708 -11.60682229 38.07093474 -15 41 C-15.66 40.34 -16.32 39.68 -17 39 C-16.50371094 38.58492187 -16.00742187 38.16984375 -15.49609375 37.7421875 C-3.88511493 27.21078736 -0.88792626 14.96789976 0 0 Z " fill="#146C7B" transform="translate(421,668)"/>
<path d="M0 0 C2.96457804 1.48228902 3.42745611 3.7164164 4.8125 6.6875 C9.8077526 16.79750885 16.58815077 23.33623155 27.34765625 27.203125 C28.22292969 27.46609375 29.09820313 27.7290625 30 28 C30 28.33 30 28.66 30 29 C21.22501177 28.61847877 13.63578015 23.53944415 7.671875 17.27734375 C4.02121578 12.3046 1.55203087 6.59274851 -1 1 C-0.67 0.67 -0.34 0.34 0 0 Z " fill="#136776" transform="translate(696,576)"/>
<path d="M0 0 C8.09798053 0.41528105 14.94341181 6.19720655 20.359375 11.87890625 C25.01928759 17.90350752 28.46998089 24.28543558 28 32 C25.82073799 29.82073799 25.54615628 28.83122186 24.75 25.9375 C21.74565349 16.59398237 15.91433981 9.27323638 7.33203125 4.5234375 C4.90758047 3.29924373 2.47217597 2.12416855 0 1 C0 0.67 0 0.34 0 0 Z " fill="#126A7B" transform="translate(701,417)"/>
<path d="M0 0 C7.26 0 14.52 0 22 0 C22 0.66 22 1.32 22 2 C24.31 2 26.62 2 29 2 C29 2.33 29 2.66 29 3 C17.45 3 5.9 3 -6 3 C-6 2.67 -6 2.34 -6 2 C-4.02 2 -2.04 2 0 2 C0 1.34 0 0.68 0 0 Z " fill="#127389" transform="translate(608,548)"/>
<path d="M0 0 C8.1321384 7.43509796 13.89872345 18.15470166 16 29 C16.03888349 31.33300933 16.0448635 33.66709801 16 36 C15.67 36 15.34 36 15 36 C14.75765625 35.10539062 14.5153125 34.21078125 14.265625 33.2890625 C11.25540703 22.4291223 8.24045726 13.12598526 1.390625 4.03125 C0 2 0 2 0 0 Z " fill="#115F6C" transform="translate(435,292)"/>
<path d="M0 0 C7.26 0 14.52 0 22 0 C21.01 0.495 21.01 0.495 20 1 C19.67 1.66 19.34 2.32 19 3 C12.73 3 6.46 3 0 3 C0 2.01 0 1.02 0 0 Z " fill="#126A7C" transform="translate(602,575)"/>
<path d="M0 0 C0.33 0.99 0.66 1.98 1 3 C-5.49888593 10.17914315 -12.07301909 17.22695199 -19 24 C-19 21 -19 21 -16.875 18.65234375 C-15.92625 17.75644531 -14.9775 16.86054688 -14 15.9375 C-8.84398278 10.97576506 -4.32390574 5.71152019 0 0 Z " fill="#146879" transform="translate(475,432)"/>
<path d="M0 0 C7.16903932 0.97468155 12.90258745 5.65289548 17.625 10.9375 C18.305625 11.9584375 18.305625 11.9584375 19 13 C16 13 16 13 13.75 10.8125 C12.8425 9.884375 11.935 8.95625 11 8 C7.55739994 5.27686467 4.03244484 2.77427573 0 1 C0 0.67 0 0.34 0 0 Z " fill="#127082" transform="translate(749,527)"/>
<path d="M0 0 C0.66 0.66 1.32 1.32 2 2 C1.14535156 2.91523438 0.29070312 3.83046875 -0.58984375 4.7734375 C-1.70584921 5.97384674 -2.82172808 7.17437368 -3.9375 8.375 C-4.50146484 8.97828125 -5.06542969 9.5815625 -5.64648438 10.203125 C-6.45375977 11.07324219 -6.45375977 11.07324219 -7.27734375 11.9609375 C-7.77484131 12.49509277 -8.27233887 13.02924805 -8.78491211 13.57958984 C-10.10293508 15.0045475 -10.10293508 15.0045475 -11 17 C-11.66 17 -12.32 17 -13 17 C-11.2703384 12.79046213 -8.31793255 9.64856424 -5.375 6.25 C-4.859375 5.64800781 -4.34375 5.04601562 -3.8125 4.42578125 C-2.54530865 2.94739134 -1.27314225 1.47326829 0 0 Z " fill="#166E7F" transform="translate(281,330)"/>
<path d="M0 0 C1.63021366 1.63021366 3.19890404 3.23573812 4.6875 5 C7.87330897 7.75529425 11.01271576 8.67090525 15 10 C14.67 10.66 14.34 11.32 14 12 C7.45703609 10.37495014 3.71369531 8.7502379 0 3 C0 2.01 0 1.02 0 0 Z " fill="#126675" transform="translate(673,671)"/>
<path d="M0 0 C2.64 0 5.28 0 8 0 C8 0.99 8 1.98 8 3 C3.38 3 -1.24 3 -6 3 C-6 2.67 -6 2.34 -6 2 C-4.02 2 -2.04 2 0 2 C0 1.34 0 0.68 0 0 Z " fill="#127289" transform="translate(609,452)"/>
<path d="M0 0 C0.66 0.33 1.32 0.66 2 1 C0.40112446 2.48488441 -1.20428905 3.96273145 -2.8125 5.4375 C-3.70582031 6.26121094 -4.59914063 7.08492188 -5.51953125 7.93359375 C-8 10 -8 10 -11 11 C-9.52202738 7.32943063 -7.52384523 5.58914217 -4.375 3.25 C-3.55773437 2.63640625 -2.74046875 2.0228125 -1.8984375 1.390625 C-0.95871094 0.70226562 -0.95871094 0.70226562 0 0 Z " fill="#136777" transform="translate(336,319)"/>
<path d="M0 0 C0.66 0.66 1.32 1.32 2 2 C-0.31 4.31 -2.62 6.62 -5 9 C-5.66 8.34 -6.32 7.68 -7 7 C-4.69 4.69 -2.38 2.38 0 0 Z " fill="#147486" transform="translate(411,700)"/>
<path d="M0 0 C3.63559661 3.43361902 6.36113346 6.7973607 9 11 C8.01 11 7.02 11 6 11 C4.39453125 9.1015625 4.39453125 9.1015625 2.8125 6.625 C2.01779297 5.40683594 2.01779297 5.40683594 1.20703125 4.1640625 C0 2 0 2 0 0 Z " fill="#136876" transform="translate(435,292)"/>
<path d="M0 0 C0.66 0.33 1.32 0.66 2 1 C-0.97 3.64 -3.94 6.28 -7 9 C-7.66 8.67 -8.32 8.34 -9 8 C-7.87811441 6.85111717 -6.75238316 5.70598863 -5.625 4.5625 C-4.99851562 3.92441406 -4.37203125 3.28632813 -3.7265625 2.62890625 C-2 1 -2 1 0 0 Z " fill="#146C7B" transform="translate(471,480)"/>
<path d="M0 0 C1.1725131 0.95117134 2.33787015 1.91117009 3.5 2.875 C4.47453125 3.67550781 4.47453125 3.67550781 5.46875 4.4921875 C5.9740625 4.98976563 6.479375 5.48734375 7 6 C7 6.66 7 7.32 7 8 C7.99 8.33 8.98 8.66 10 9 C6.39755548 8.69121904 5.00654002 8.00552268 2.1875 5.625 C0 3 0 3 0 0 Z " fill="#116D7F" transform="translate(562,447)"/>
<path d="M0 0 C2.61047801 1.305239 2.68066423 2.35826574 3.625 5.0625 C3.88539063 5.79597656 4.14578125 6.52945313 4.4140625 7.28515625 C4.60742188 7.85105469 4.80078125 8.41695312 5 9 C4.01 9.495 4.01 9.495 3 10 C1.68 7.03 0.36 4.06 -1 1 C-0.67 0.67 -0.34 0.34 0 0 Z " fill="#157486" transform="translate(696,576)"/>
<path d="M0 0 C0.33 0.99 0.66 1.98 1 3 C-0.40445835 5.2636564 -2.1967913 7.0208685 -4 9 C-4.66 8.34 -5.32 7.68 -6 7 C-4.02 4.69 -2.04 2.38 0 0 Z " fill="#167386" transform="translate(475,432)"/>
<path d="M0 0 C0.99 0.33 1.98 0.66 3 1 C2.01 1.33 1.02 1.66 0 2 C0 1.34 0 0.68 0 0 Z " fill="#20A3BD" transform="translate(632,648)"/>
<path d="M0 0 C0.99 0.33 1.98 0.66 3 1 C2.01 1.33 1.02 1.66 0 2 C0 1.34 0 0.68 0 0 Z " fill="#209DB7" transform="translate(644,302)"/>
<path d="" fill="#1F90A6" transform="translate(0,0)"/>
<path d="" fill="#2197B1" transform="translate(0,0)"/>
<path d="M0 0 C0.66 0 1.32 0 2 0 C1.67 0.66 1.34 1.32 1 2 C0.67 1.34 0.34 0.68 0 0 Z " fill="#20A0B8" transform="translate(687,653)"/>
<path d="M0 0 C3 1 3 1 3 1 Z " fill="#23A2BD" transform="translate(680,624)"/>
<path d="" fill="#2093AA" transform="translate(0,0)"/>
<path d="" fill="#1F9BB4" transform="translate(0,0)"/>
<path d="M0 0 C0.66 0 1.32 0 2 0 C1.67 0.66 1.34 1.32 1 2 C0.67 1.34 0.34 0.68 0 0 Z " fill="#1F9BB3" transform="translate(786,467)"/>
<path d="M0 0 C2 1 2 1 2 1 Z " fill="#209BB2" transform="translate(242,801)"/>
<path d="M0 0 C2 1 2 1 2 1 Z " fill="#209CB4" transform="translate(773,800)"/>
<path d="M0 0 C2 1 2 1 2 1 Z " fill="#2192A9" transform="translate(696,788)"/>
<path d="M0 0 C2 1 2 1 2 1 Z " fill="#209CB6" transform="translate(801,787)"/>
<path d="" fill="#209BB3" transform="translate(0,0)"/>
<path d="M0 0 C2 1 2 1 2 1 Z " fill="#1F99B2" transform="translate(337,744)"/>
<path d="" fill="#1D9BB3" transform="translate(0,0)"/>
<path d="" fill="#2291A8" transform="translate(0,0)"/>
<path d="M0 0 C2 1 2 1 2 1 Z " fill="#1D9AB5" transform="translate(659,728)"/>
<path d="" fill="#1E91A9" transform="translate(0,0)"/>
<path d="" fill="#1E93AB" transform="translate(0,0)"/>
<path d="" fill="#1F93A8" transform="translate(0,0)"/>
<path d="M0 0 C2 1 2 1 2 1 Z " fill="#219DB6" transform="translate(674,707)"/>
<path d="" fill="#2097B0" transform="translate(0,0)"/>
<path d="" fill="#2097AF" transform="translate(0,0)"/>
<path d="M0 0 C2 1 2 1 2 1 Z " fill="#1EA2BD" transform="translate(615,649)"/>
<path d="" fill="#1E93AB" transform="translate(0,0)"/>
<path d="" fill="#1F91A7" transform="translate(0,0)"/>
<path d="" fill="#2095AC" transform="translate(0,0)"/>
<path d="M0 0 C2 1 2 1 2 1 Z " fill="#209DB7" transform="translate(744,523)"/>
<path d="" fill="#1E9DBA" transform="translate(0,0)"/>
<path d="" fill="#2298B1" transform="translate(0,0)"/>
<path d="M0 0 C2 1 2 1 2 1 Z " fill="#20A0BA" transform="translate(681,467)"/>
<path d="" fill="#239EB7" transform="translate(0,0)"/>
<path d="" fill="#1E9DB6" transform="translate(0,0)"/>
<path d="" fill="#219BB4" transform="translate(0,0)"/>
<path d="M0 0 C2 1 2 1 2 1 Z " fill="#1F9BB6" transform="translate(389,302)"/>
<path d="M0 0 C2 1 2 1 2 1 Z " fill="#1F92AB" transform="translate(702,289)"/>
<path d="M0 0 C2 1 2 1 2 1 Z " fill="#1E92AB" transform="translate(667,272)"/>
<path d="M0 0 C2 1 2 1 2 1 Z " fill="#208DA2" transform="translate(368,269)"/>
<path d="" fill="#1F849A" transform="translate(0,0)"/>
<path d="" fill="#20879B" transform="translate(0,0)"/>
<path d="" fill="#1F889E" transform="translate(0,0)"/>
<path d="" fill="#1D88A0" transform="translate(0,0)"/>
<path d="" fill="#1F8EA3" transform="translate(0,0)"/>
<path d="" fill="#1E8BA2" transform="translate(0,0)"/>
<path d="" fill="#1F88A0" transform="translate(0,0)"/>
<path d="" fill="#1F8DA0" transform="translate(0,0)"/>
<path d="" fill="#1C8BA0" transform="translate(0,0)"/>
<path d="" fill="#1F899F" transform="translate(0,0)"/>
<path d="" fill="#1B8EAA" transform="translate(0,0)"/>
<path d="" fill="#2094A8" transform="translate(0,0)"/>
<path d="" fill="#1D8599" transform="translate(0,0)"/>
<path d="" fill="#1E91A8" transform="translate(0,0)"/>
<path d="" fill="#1D8AA1" transform="translate(0,0)"/>
<path d="" fill="#1E90A6" transform="translate(0,0)"/>
<path d="" fill="#1C92A9" transform="translate(0,0)"/>
<path d="" fill="#229CB7" transform="translate(0,0)"/>
<path d="" fill="#209CB7" transform="translate(0,0)"/>
<path d="" fill="#1E8DA2" transform="translate(0,0)"/>
<path d="" fill="#1F90A7" transform="translate(0,0)"/>
<path d="" fill="#229AB3" transform="translate(0,0)"/>
<path d="" fill="#219EB4" transform="translate(0,0)"/>
<path d="" fill="#1E93AA" transform="translate(0,0)"/>
<path d="" fill="#1D92A9" transform="translate(0,0)"/>
<path d="" fill="#1E99B2" transform="translate(0,0)"/>
<path d="" fill="#208FA6" transform="translate(0,0)"/>
<path d="" fill="#1E91AA" transform="translate(0,0)"/>
<path d="" fill="#2091AA" transform="translate(0,0)"/>
<path d="" fill="#1E95AD" transform="translate(0,0)"/>
<path d="" fill="#2093A8" transform="translate(0,0)"/>
<path d="" fill="#2094AB" transform="translate(0,0)"/>
<path d="" fill="#2192A7" transform="translate(0,0)"/>
<path d="" fill="#2299B0" transform="translate(0,0)"/>
<path d="" fill="#2191A8" transform="translate(0,0)"/>
<path d="" fill="#1E8FA7" transform="translate(0,0)"/>
<path d="" fill="#1E8EA5" transform="translate(0,0)"/>
<path d="" fill="#1F90A5" transform="translate(0,0)"/>
<path d="" fill="#219BB3" transform="translate(0,0)"/>
<path d="" fill="#2099B0" transform="translate(0,0)"/>
<path d="" fill="#2098B4" transform="translate(0,0)"/>
<path d="" fill="#2096AF" transform="translate(0,0)"/>
<path d="" fill="#1E96AF" transform="translate(0,0)"/>
<path d="" fill="#2299B3" transform="translate(0,0)"/>
<path d="" fill="#2199B2" transform="translate(0,0)"/>
<path d="" fill="#2190A7" transform="translate(0,0)"/>
<path d="" fill="#1E92AA" transform="translate(0,0)"/>
<path d="" fill="#1E92AB" transform="translate(0,0)"/>
<path d="" fill="#218DA3" transform="translate(0,0)"/>
<path d="" fill="#1F91A6" transform="translate(0,0)"/>
<path d="" fill="#1C90A8" transform="translate(0,0)"/>
<path d="" fill="#1F90AA" transform="translate(0,0)"/>
<path d="" fill="#1E96AD" transform="translate(0,0)"/>
<path d="" fill="#2191A6" transform="translate(0,0)"/>
<path d="" fill="#1E8DA7" transform="translate(0,0)"/>
<path d="" fill="#1F96AC" transform="translate(0,0)"/>
<path d="" fill="#1B95AE" transform="translate(0,0)"/>
<path d="" fill="#1D9DB7" transform="translate(0,0)"/>
<path d="" fill="#219AB1" transform="translate(0,0)"/>
<path d="" fill="#1E89A0" transform="translate(0,0)"/>
<path d="" fill="#1F8EA5" transform="translate(0,0)"/>
<path d="" fill="#1E8FA5" transform="translate(0,0)"/>
<path d="" fill="#209CB8" transform="translate(0,0)"/>
<path d="" fill="#209DB8" transform="translate(0,0)"/>
<path d="" fill="#1F8FA7" transform="translate(0,0)"/>
<path d="" fill="#1F96AE" transform="translate(0,0)"/>
<path d="" fill="#219EB5" transform="translate(0,0)"/>
<path d="" fill="#1F97AF" transform="translate(0,0)"/>
<path d="" fill="#1F9DB6" transform="translate(0,0)"/>
<path d="" fill="#1C95AD" transform="translate(0,0)"/>
<path d="" fill="#209DB5" transform="translate(0,0)"/>
<path d="" fill="#1D8DA4" transform="translate(0,0)"/>
<path d="" fill="#1D9AB6" transform="translate(0,0)"/>
<path d="" fill="#1C99B1" transform="translate(0,0)"/>
<path d="" fill="#2394AA" transform="translate(0,0)"/>
<path d="" fill="#209CB4" transform="translate(0,0)"/>
<path d="" fill="#2093AA" transform="translate(0,0)"/>
<path d="" fill="#2098B3" transform="translate(0,0)"/>
<path d="" fill="#1F98B0" transform="translate(0,0)"/>
<path d="" fill="#1993AC" transform="translate(0,0)"/>
<path d="" fill="#2198B0" transform="translate(0,0)"/>
<path d="" fill="#1F9BB4" transform="translate(0,0)"/>
<path d="" fill="#1F98AF" transform="translate(0,0)"/>
<path d="" fill="#1F99B2" transform="translate(0,0)"/>
<path d="" fill="#2199AF" transform="translate(0,0)"/>
<path d="" fill="#2197AC" transform="translate(0,0)"/>
<path d="" fill="#2393A9" transform="translate(0,0)"/>
<path d="" fill="#1F95AE" transform="translate(0,0)"/>
<path d="" fill="#25A1B6" transform="translate(0,0)"/>
<path d="" fill="#2098AE" transform="translate(0,0)"/>
<path d="" fill="#2096AC" transform="translate(0,0)"/>
<path d="" fill="#209FB9" transform="translate(0,0)"/>
<path d="" fill="#2398AE" transform="translate(0,0)"/>
<path d="" fill="#2194AC" transform="translate(0,0)"/>
<path d="" fill="#1F9FBB" transform="translate(0,0)"/>
<path d="" fill="#209EB9" transform="translate(0,0)"/>
<path d="" fill="#1FA1BB" transform="translate(0,0)"/>
<path d="" fill="#2199B5" transform="translate(0,0)"/>
<path d="" fill="#1EA4C3" transform="translate(0,0)"/>
<path d="" fill="#1B9FBB" transform="translate(0,0)"/>
<path d="" fill="#22A2BB" transform="translate(0,0)"/>
<path d="" fill="#23A5BF" transform="translate(0,0)"/>
<path d="" fill="#1F9AB3" transform="translate(0,0)"/>
<path d="" fill="#209CB6" transform="translate(0,0)"/>
<path d="" fill="#1F9CB5" transform="translate(0,0)"/>
<path d="" fill="#1F9EB4" transform="translate(0,0)"/>
<path d="" fill="#1E9EB8" transform="translate(0,0)"/>
<path d="" fill="#1E94AD" transform="translate(0,0)"/>
<path d="" fill="#2099AD" transform="translate(0,0)"/>
<path d="" fill="#209DB7" transform="translate(0,0)"/>
<path d="" fill="#229EB9" transform="translate(0,0)"/>
<path d="" fill="#1DA0B8" transform="translate(0,0)"/>
<path d="" fill="#2199B2" transform="translate(0,0)"/>
<path d="" fill="#2092AF" transform="translate(0,0)"/>
<path d="" fill="#1E97B2" transform="translate(0,0)"/>
<path d="" fill="#2092AB" transform="translate(0,0)"/>
<path d="" fill="#1E9FB9" transform="translate(0,0)"/>
<path d="" fill="#1FA0BC" transform="translate(0,0)"/>
<path d="" fill="#1F9FBB" transform="translate(0,0)"/>
<path d="" fill="#219EB9" transform="translate(0,0)"/>
<path d="" fill="#21A0BA" transform="translate(0,0)"/>
<path d="" fill="#209EBA" transform="translate(0,0)"/>
<path d="" fill="#219DB8" transform="translate(0,0)"/>
<path d="" fill="#2192A9" transform="translate(0,0)"/>
<path d="" fill="#209CB5" transform="translate(0,0)"/>
<path d="" fill="#2293AB" transform="translate(0,0)"/>
<path d="" fill="#209CB6" transform="translate(0,0)"/>
<path d="" fill="#229FBA" transform="translate(0,0)"/>
<path d="" fill="#219AB4" transform="translate(0,0)"/>
<path d="" fill="#1EA0BB" transform="translate(0,0)"/>
<path d="" fill="#1DA2BB" transform="translate(0,0)"/>
<path d="" fill="#1E92AD" transform="translate(0,0)"/>
<path d="" fill="#209FB9" transform="translate(0,0)"/>
<path d="" fill="#2093AD" transform="translate(0,0)"/>
<path d="" fill="#249FB7" transform="translate(0,0)"/>
<path d="" fill="#2094AC" transform="translate(0,0)"/>
<path d="" fill="#2295AC" transform="translate(0,0)"/>
<path d="" fill="#27A4BD" transform="translate(0,0)"/>
<path d="" fill="#1E97B1" transform="translate(0,0)"/>
<path d="" fill="#1F94A9" transform="translate(0,0)"/>
<path d="" fill="#1E9BB5" transform="translate(0,0)"/>
<path d="" fill="#1E95AE" transform="translate(0,0)"/>
<path d="" fill="#2091A7" transform="translate(0,0)"/>
<path d="" fill="#2195AC" transform="translate(0,0)"/>
<path d="" fill="#209AB3" transform="translate(0,0)"/>
<path d="" fill="#1D9DB7" transform="translate(0,0)"/>
<path d="" fill="#1F9FB9" transform="translate(0,0)"/>
<path d="" fill="#229CB3" transform="translate(0,0)"/>
<path d="" fill="#219CB4" transform="translate(0,0)"/>
<path d="" fill="#229FB9" transform="translate(0,0)"/>
<path d="" fill="#2293AA" transform="translate(0,0)"/>
<path d="" fill="#23A2BB" transform="translate(0,0)"/>
<path d="" fill="#209CB3" transform="translate(0,0)"/>
<path d="" fill="#1F98AF" transform="translate(0,0)"/>
<path d="" fill="#1F9BB2" transform="translate(0,0)"/>
<path d="" fill="#2196B2" transform="translate(0,0)"/>
<path d="" fill="#239CB5" transform="translate(0,0)"/>
<path d="" fill="#2093AB" transform="translate(0,0)"/>
<path d="" fill="#219DB7" transform="translate(0,0)"/>
<path d="" fill="#2197AF" transform="translate(0,0)"/>
<path d="" fill="#219DB5" transform="translate(0,0)"/>
<path d="" fill="#219CB6" transform="translate(0,0)"/>
<path d="" fill="#1F9CB5" transform="translate(0,0)"/>
<path d="" fill="#229DB6" transform="translate(0,0)"/>
<path d="" fill="#1E97B0" transform="translate(0,0)"/>
<path d="" fill="#2092AB" transform="translate(0,0)"/>
<path d="" fill="#1E9CB8" transform="translate(0,0)"/>
<path d="" fill="#2393A9" transform="translate(0,0)"/>
<path d="" fill="#209FB4" transform="translate(0,0)"/>
<path d="" fill="#209BB3" transform="translate(0,0)"/>
<path d="" fill="#1F97AF" transform="translate(0,0)"/>
<path d="" fill="#2098AF" transform="translate(0,0)"/>
<path d="" fill="#1D90A7" transform="translate(0,0)"/>
<path d="" fill="#1F9CB8" transform="translate(0,0)"/>
<path d="" fill="#1F9FB7" transform="translate(0,0)"/>
<path d="" fill="#219CB7" transform="translate(0,0)"/>
<path d="" fill="#2095AA" transform="translate(0,0)"/>
<path d="" fill="#2292AA" transform="translate(0,0)"/>
<path d="" fill="#219DB7" transform="translate(0,0)"/>
<path d="" fill="#209BB6" transform="translate(0,0)"/>
<path d="" fill="#2094AC" transform="translate(0,0)"/>
<path d="" fill="#219CB5" transform="translate(0,0)"/>
<path d="" fill="#1F95AF" transform="translate(0,0)"/>
<path d="" fill="#209CB4" transform="translate(0,0)"/>
<path d="" fill="#209DB3" transform="translate(0,0)"/>
<path d="" fill="#2093AC" transform="translate(0,0)"/>
<path d="" fill="#1F9DB4" transform="translate(0,0)"/>
<path d="" fill="#2197AF" transform="translate(0,0)"/>
<path d="" fill="#2291A9" transform="translate(0,0)"/>
<path d="" fill="#219DB8" transform="translate(0,0)"/>
<path d="" fill="#1F8DA5" transform="translate(0,0)"/>
<path d="" fill="#209FB8" transform="translate(0,0)"/>
<path d="" fill="#1D99B2" transform="translate(0,0)"/>
<path d="" fill="#209BB2" transform="translate(0,0)"/>
<path d="" fill="#1F9BB7" transform="translate(0,0)"/>
<path d="" fill="#1FA3C1" transform="translate(0,0)"/>
<path d="" fill="#219FB5" transform="translate(0,0)"/>
<path d="" fill="#2093AB" transform="translate(0,0)"/>
<path d="" fill="#1DA1BD" transform="translate(0,0)"/>
<path d="" fill="#2399B4" transform="translate(0,0)"/>
<path d="" fill="#1FA3C0" transform="translate(0,0)"/>
<path d="" fill="#2195AD" transform="translate(0,0)"/>
<path d="" fill="#219AB3" transform="translate(0,0)"/>
<path d="" fill="#1E9CB7" transform="translate(0,0)"/>
<path d="" fill="#24A1BD" transform="translate(0,0)"/>
<path d="" fill="#1F9EB6" transform="translate(0,0)"/>
<path d="" fill="#2197AF" transform="translate(0,0)"/>
<path d="" fill="#209EB6" transform="translate(0,0)"/>
<path d="" fill="#1F9CB6" transform="translate(0,0)"/>
<path d="" fill="#1EA0BA" transform="translate(0,0)"/>
<path d="" fill="#209DB5" transform="translate(0,0)"/>
<path d="" fill="#219DB8" transform="translate(0,0)"/>
<path d="" fill="#1BA1BC" transform="translate(0,0)"/>
<path d="" fill="#219CB5" transform="translate(0,0)"/>
<path d="" fill="#1E9DB6" transform="translate(0,0)"/>
<path d="" fill="#2093AC" transform="translate(0,0)"/>
<path d="" fill="#1E90A7" transform="translate(0,0)"/>
<path d="" fill="#1FA1BB" transform="translate(0,0)"/>
<path d="" fill="#229CB6" transform="translate(0,0)"/>
<path d="" fill="#1F98B2" transform="translate(0,0)"/>
<path d="" fill="#2196AC" transform="translate(0,0)"/>
<path d="" fill="#2199B3" transform="translate(0,0)"/>
<path d="" fill="#21A0B9" transform="translate(0,0)"/>
<path d="" fill="#2093A8" transform="translate(0,0)"/>
<path d="" fill="#1D98B0" transform="translate(0,0)"/>
<path d="" fill="#2094AA" transform="translate(0,0)"/>
<path d="" fill="#229EB6" transform="translate(0,0)"/>
<path d="" fill="#209AB5" transform="translate(0,0)"/>
<path d="" fill="#1D96A9" transform="translate(0,0)"/>
<path d="" fill="#1E90A8" transform="translate(0,0)"/>
<path d="" fill="#2298B1" transform="translate(0,0)"/>
<path d="" fill="#2194AC" transform="translate(0,0)"/>
<path d="" fill="#2190A7" transform="translate(0,0)"/>
<path d="" fill="#198EA7" transform="translate(0,0)"/>
<path d="" fill="#1D9DB8" transform="translate(0,0)"/>
<path d="" fill="#1E8FA5" transform="translate(0,0)"/>
<path d="" fill="#1A93A9" transform="translate(0,0)"/>
<path d="" fill="#1F99B3" transform="translate(0,0)"/>
<path d="" fill="#1C8DA4" transform="translate(0,0)"/>
<path d="" fill="#1F99B4" transform="translate(0,0)"/>
<path d="" fill="#1C9AB5" transform="translate(0,0)"/>
<path d="" fill="#209CB6" transform="translate(0,0)"/>
<path d="" fill="#1E8EA4" transform="translate(0,0)"/>
<path d="" fill="#1F99B5" transform="translate(0,0)"/>
<path d="" fill="#219DB9" transform="translate(0,0)"/>
<path d="" fill="#209CB4" transform="translate(0,0)"/>
<path d="" fill="#1F9DB5" transform="translate(0,0)"/>
<path d="" fill="#218FA5" transform="translate(0,0)"/>
<path d="" fill="#229FB8" transform="translate(0,0)"/>
<path d="" fill="#219BB6" transform="translate(0,0)"/>
<path d="" fill="#209AB5" transform="translate(0,0)"/>
<path d="" fill="#2092A6" transform="translate(0,0)"/>
<path d="" fill="#2191A8" transform="translate(0,0)"/>
<path d="" fill="#209AB7" transform="translate(0,0)"/>
<path d="" fill="#1F92A9" transform="translate(0,0)"/>
<path d="" fill="#209BB6" transform="translate(0,0)"/>
<path d="" fill="#219CB5" transform="translate(0,0)"/>
<path d="" fill="#209AB4" transform="translate(0,0)"/>
<path d="" fill="#219BB1" transform="translate(0,0)"/>
<path d="" fill="#2291A9" transform="translate(0,0)"/>
<path d="" fill="#219CB5" transform="translate(0,0)"/>
<path d="" fill="#1EA1B9" transform="translate(0,0)"/>
<path d="" fill="#209CB4" transform="translate(0,0)"/>
<path d="" fill="#1E9BB9" transform="translate(0,0)"/>
<path d="" fill="#209BB3" transform="translate(0,0)"/>
<path d="" fill="#2091A6" transform="translate(0,0)"/>
<path d="" fill="#219CB5" transform="translate(0,0)"/>
<path d="" fill="#1E91A9" transform="translate(0,0)"/>
<path d="" fill="#20A0BB" transform="translate(0,0)"/>
<path d="" fill="#269CB7" transform="translate(0,0)"/>
<path d="" fill="#238FA4" transform="translate(0,0)"/>
<path d="" fill="#2199B0" transform="translate(0,0)"/>
<path d="" fill="#218EA6" transform="translate(0,0)"/>
<path d="" fill="#1E97B0" transform="translate(0,0)"/>
<path d="" fill="#1D97AE" transform="translate(0,0)"/>
<path d="" fill="#208FA7" transform="translate(0,0)"/>
<path d="" fill="#2090A8" transform="translate(0,0)"/>
<path d="" fill="#1C96AE" transform="translate(0,0)"/>
<path d="" fill="#2097B0" transform="translate(0,0)"/>
<path d="" fill="#1E8FA7" transform="translate(0,0)"/>
<path d="" fill="#1F98B0" transform="translate(0,0)"/>
<path d="" fill="#1F95AD" transform="translate(0,0)"/>
<path d="" fill="#2094AB" transform="translate(0,0)"/>
<path d="" fill="#1F93AC" transform="translate(0,0)"/>
<path d="" fill="#2297B2" transform="translate(0,0)"/>
<path d="" fill="#2096AA" transform="translate(0,0)"/>
<path d="" fill="#1F93A9" transform="translate(0,0)"/>
<path d="" fill="#2295AC" transform="translate(0,0)"/>
<path d="" fill="#1D93AD" transform="translate(0,0)"/>
<path d="" fill="#1E90A6" transform="translate(0,0)"/>
<path d="" fill="#1C90A8" transform="translate(0,0)"/>
<path d="" fill="#2091A8" transform="translate(0,0)"/>
<path d="" fill="#1E8EA3" transform="translate(0,0)"/>
<path d="" fill="#208AA0" transform="translate(0,0)"/>
<path d="" fill="#20889E" transform="translate(0,0)"/>
</svg>
